<svg width="12" height="12" viewBox="0 0 12 12" fill="none" xmlns="http://www.w3.org/2000/svg">
  <path fill-rule="evenodd" clip-rule="evenodd" d="M7.44637 1.59122L11.6865 8.95004C11.7798 9.16969 11.8206 9.3483 11.8323 9.53385C11.8556 9.96736 11.704 10.3887 11.4065 10.713C11.1091 11.0361 10.7067 11.2269 10.2692 11.25H1.73066C1.54986 11.239 1.36906 11.198 1.19992 11.1344C0.354228 10.7934 -0.0540366 9.83384 0.290072 9.00206L4.55935 1.58602C4.70516 1.32533 4.92679 1.10048 5.20091 0.955971C5.99411 0.516095 7.00311 0.805107 7.44637 1.59122ZM6.50762 6.44082C6.50762 6.71827 6.28016 6.95006 6.00021 6.95006C5.72025 6.95006 5.48696 6.71827 5.48696 6.44082V4.80559C5.48696 4.52756 5.72025 4.30271 6.00021 4.30271C6.28016 4.30271 6.50762 4.52756 6.50762 4.80559V6.44082ZM6.00021 8.92693C5.72025 8.92693 5.48696 8.69514 5.48696 8.41827C5.48696 8.14024 5.72025 7.90903 6.00021 7.90903C6.28016 7.90903 6.50762 8.13504 6.50762 8.41191C6.50762 8.69514 6.28016 8.92693 6.00021 8.92693Z" fill="#F55959"/>
  </svg>
