<svg width="20" height="18" viewBox="0 0 20 18" fill="none" xmlns="http://www.w3.org/2000/svg">
  <path fill-rule="evenodd" clip-rule="evenodd" d="M7.23412 12.2526C7.8586 12.6759 8.61967 12.9319 9.42954 12.9319C11.5762 12.9319 13.3227 11.1696 13.3227 9.00369C13.3227 8.18655 13.069 7.41863 12.6495 6.78855L11.5859 7.86166C11.7615 8.1964 11.8591 8.5902 11.8591 9.00369C11.8591 10.3525 10.7663 11.4551 9.42954 11.4551C9.01973 11.4551 8.62943 11.3567 8.29768 11.1795L7.23412 12.2526ZM15.8597 3.54952C17.2745 4.84907 18.4746 6.60149 19.3723 8.70834C19.4504 8.8954 19.4504 9.11199 19.3723 9.2892C17.2842 14.1921 13.5667 17.1259 9.42954 17.1259H9.41978C7.5366 17.1259 5.73149 16.5056 4.14103 15.3735L2.2481 17.2834C2.10174 17.4311 1.91635 17.5 1.73096 17.5C1.54557 17.5 1.35042 17.4311 1.21382 17.2834C0.969885 17.0373 0.930855 16.6435 1.126 16.358L1.15528 16.3186L15.5864 1.75771C15.606 1.73802 15.6255 1.71833 15.6352 1.69864C15.6547 1.67895 15.6743 1.65926 15.684 1.63957L16.6012 0.714131C16.8939 0.428623 17.3525 0.428623 17.6355 0.714131C17.9282 0.999638 17.9282 1.4722 17.6355 1.75771L15.8597 3.54952ZM6.09836 9.00753C6.09836 9.2635 6.12764 9.51948 6.16667 9.75576L2.55643 13.3984C1.5807 12.2564 0.731804 10.8781 0.0585443 9.29304C-0.0195148 9.11583 -0.0195148 8.89924 0.0585443 8.71218C2.14662 3.80933 5.86419 0.885337 9.99156 0.885337H10.0013C11.3966 0.885337 12.7529 1.22007 14.0018 1.85015L10.7429 5.13841C10.5087 5.09903 10.255 5.0695 10.0013 5.0695C7.84494 5.0695 6.09836 6.83177 6.09836 9.00753Z" fill="#00004C"/>
  </svg>
