<svg width="166" height="150" viewBox="0 0 166 150" fill="none" xmlns="http://www.w3.org/2000/svg">
  <g clip-path="url(#clip0)">
  <path d="M142.328 13.7926L3.9458 53.9421L7.61116 66.4695L145.994 26.32L142.328 13.7926Z" fill="black"/>
  <path d="M20.4793 111.485L0.0828325 41.7745C-0.0683815 41.2577 -0.00721981 40.7022 0.252853 40.2302C0.512926 39.7583 0.950608 39.4086 1.46962 39.258L136.497 0.0817557C137.016 -0.068317 137.574 -0.00720597 138.048 0.251682C138.522 0.510569 138.873 0.946079 139.025 1.46261L157.094 63.2212L156.535 63.3834L138.465 1.62487C138.357 1.25607 138.106 0.945165 137.768 0.760274C137.429 0.575382 137.031 0.531575 136.66 0.638455L1.63253 39.8147C1.2618 39.9223 0.949171 40.1721 0.763405 40.5092C0.577638 40.8463 0.533952 41.2431 0.641956 41.6122L21.0385 111.323L20.4793 111.485Z" fill="black"/>
  <path d="M127.208 63.508C126.798 63.5076 126.4 63.375 126.072 63.1302C125.744 62.8855 125.505 62.5416 125.39 62.1501L121.969 50.4579C121.829 49.978 121.886 49.4624 122.128 49.0244C122.369 48.5863 122.775 48.2615 123.257 48.1212L134.998 44.7146C135.48 44.5753 135.998 44.6322 136.438 44.8726C136.878 45.113 137.204 45.5174 137.345 45.997L140.766 57.6892C140.906 58.1691 140.849 58.6846 140.607 59.1227C140.366 59.5607 139.96 59.8856 139.478 60.0259L127.737 63.4325C127.565 63.4825 127.387 63.5079 127.208 63.508Z" fill="#001DC6"/>
  <path d="M20.1636 41.9899C20.1284 41.8698 20.0866 41.7517 20.0383 41.6362C19.71 40.8427 19.0988 40.198 18.3222 39.8261C17.5456 39.4541 16.6583 39.381 15.8309 39.6209C15.0034 39.8608 14.2942 40.3967 13.8395 41.1257C13.3848 41.8547 13.2166 42.7253 13.3673 43.5702C13.3885 43.6935 13.4167 43.8155 13.4518 43.9356C13.6644 44.6583 14.1065 45.293 14.7117 45.7446C15.3169 46.1963 16.0528 46.4405 16.8091 46.4408C17.1393 46.4415 17.4679 46.3947 17.7846 46.3016C18.6736 46.043 19.4232 45.4438 19.8692 44.6355C20.3152 43.8272 20.421 42.8758 20.1636 41.9899ZM17.6215 45.7449C16.8802 45.9592 16.0837 45.8719 15.4069 45.5023C14.73 45.1327 14.228 44.5109 14.0109 43.7732C13.9768 43.653 13.9495 43.531 13.9292 43.4078C13.82 42.7117 13.9692 41.9997 14.3488 41.4051C14.7285 40.8105 15.3126 40.374 15.992 40.1771C16.6714 39.9803 17.3996 40.0366 18.0403 40.3355C18.681 40.6345 19.1905 41.1556 19.4734 41.8014C19.5261 41.9148 19.57 42.0321 19.6045 42.1523C19.8194 42.8905 19.7312 43.6836 19.3594 44.3572C18.9876 45.0308 18.3626 45.5299 17.6215 45.7449V45.7449Z" fill="#001DC6"/>
  <path d="M11.593 44.4749C11.4067 43.8376 11.4246 43.1583 11.6442 42.5316C11.8639 41.905 12.2743 41.3621 12.8184 40.9788C12.3087 40.954 11.8004 41.0509 11.3358 41.2614C10.8713 41.4719 10.464 41.7899 10.1479 42.1889C9.83179 42.5879 9.61598 43.0563 9.51847 43.5552C9.42097 44.054 9.44458 44.5688 9.58734 45.0568C9.7301 45.5447 9.98788 45.9916 10.3392 46.3602C10.6905 46.7288 11.1252 47.0085 11.6071 47.176C12.0889 47.3435 12.604 47.3938 13.1094 47.3229C13.6147 47.252 14.0958 47.0619 14.5124 46.7684C13.8467 46.736 13.2076 46.4977 12.6843 46.0866C12.1611 45.6755 11.7796 45.1121 11.593 44.4749Z" fill="#001DC6"/>
  <path d="M102.111 58.8454C102.049 58.6235 101.944 58.4159 101.801 58.2346C101.659 58.0533 101.482 57.9017 101.28 57.7886C101.079 57.6755 100.857 57.603 100.627 57.5754C100.398 57.5478 100.165 57.5655 99.9421 57.6275L80.6103 63.0121L78.5283 63.592H91.6025L93.6845 63.0121L100.891 61.0056C101.341 60.8799 101.721 60.5818 101.95 60.1768C102.179 59.7718 102.237 59.293 102.111 58.8454Z" fill="#CCCCCC"/>
  <path d="M88.4347 54.8236C88.3087 54.3761 88.0094 53.9967 87.6026 53.7689C87.1958 53.541 86.7148 53.4834 86.2653 53.6087L57.2576 61.687C56.8522 61.8014 56.5012 62.0562 56.2679 62.4055C56.0346 62.7548 55.9343 63.1756 55.9851 63.5921H63.4947L65.5795 63.0122L87.2146 56.9868C87.6643 56.8607 88.0453 56.5621 88.274 56.1565C88.5028 55.7509 88.5605 55.2716 88.4347 54.8236Z" fill="#CCCCCC"/>
  <rect x="21.2119" y="63.6364" width="143.939" height="86.3636" rx="2" fill="url(#paint0_linear)"/>
  <path d="M163.113 63.0115H22.4709C21.9305 63.0121 21.4124 63.2261 21.0303 63.6066C20.6482 63.9872 20.4332 64.5031 20.4326 65.0412V147.97C20.4332 148.508 20.6481 149.024 21.0303 149.405C21.4124 149.785 21.9305 149.999 22.4709 150H163.113C163.654 149.999 164.172 149.785 164.554 149.405C164.936 149.024 165.151 148.508 165.152 147.97V65.0412C165.151 64.5031 164.936 63.9872 164.554 63.6067C164.172 63.2261 163.654 63.0121 163.113 63.0115ZM164.569 147.97C164.569 148.355 164.416 148.723 164.143 148.995C163.87 149.267 163.5 149.42 163.113 149.42H22.4709C22.0848 149.42 21.7146 149.267 21.4416 148.995C21.1686 148.723 21.0151 148.355 21.015 147.97V65.0412C21.0152 64.6567 21.1686 64.2881 21.4416 64.0162C21.7146 63.7444 22.0848 63.5916 22.4709 63.5914H163.113C163.5 63.5916 163.87 63.7444 164.143 64.0162C164.416 64.2881 164.569 64.6567 164.569 65.0412V147.97Z" fill="black"/>
  <path d="M36.1558 74.3206C35.4647 74.3206 34.7892 74.1166 34.2146 73.7342C33.6399 73.3519 33.1921 72.8085 32.9276 72.1727C32.6631 71.5369 32.5939 70.8373 32.7288 70.1623C32.8636 69.4873 33.1964 68.8673 33.6851 68.3807C34.1737 67.8941 34.7963 67.5627 35.4742 67.4284C36.152 67.2942 36.8545 67.3631 37.493 67.6264C38.1315 67.8898 38.6772 68.3358 39.0612 68.908C39.4451 69.4802 39.6501 70.1529 39.6501 70.8411C39.649 71.7636 39.2805 72.648 38.6255 73.3003C37.9704 73.9527 37.0822 74.3196 36.1558 74.3206ZM36.1558 67.9415C35.5799 67.9415 35.017 68.1116 34.5381 68.4302C34.0593 68.7488 33.686 69.2016 33.4656 69.7315C33.2453 70.2613 33.1876 70.8443 33.2999 71.4068C33.4123 71.9693 33.6896 72.4859 34.0969 72.8914C34.5041 73.297 35.0229 73.5731 35.5878 73.685C36.1526 73.7969 36.7381 73.7395 37.2702 73.52C37.8022 73.3005 38.257 72.9289 38.577 72.4521C38.8969 71.9752 39.0677 71.4146 39.0677 70.8411C39.0668 70.0723 38.7598 69.3353 38.2139 68.7917C37.668 68.2481 36.9278 67.9424 36.1558 67.9415Z" fill="#DADAFF"/>
  <path d="M30.7238 70.8411C30.724 70.1774 30.9319 69.5302 31.3189 68.9898C31.7058 68.4493 32.2523 68.0425 32.8824 67.8259C32.3999 67.6602 31.8847 67.6117 31.3796 67.6844C30.8745 67.7571 30.3941 67.9489 29.9786 68.2439C29.563 68.5389 29.2242 68.9285 28.9905 69.3803C28.7567 69.8321 28.6348 70.3329 28.6348 70.8411C28.6348 71.3493 28.7567 71.8502 28.9905 72.302C29.2242 72.7537 29.563 73.1434 29.9786 73.4384C30.3941 73.7334 30.8745 73.9252 31.3796 73.9979C31.8847 74.0706 32.3999 74.0221 32.8824 73.8563C32.2523 73.6398 31.7058 73.233 31.3189 72.6925C30.9319 72.152 30.724 71.5049 30.7238 70.8411Z" fill="#DADAFF"/>
  <path d="M50.3194 111.951C49.6246 111.951 48.9585 111.675 48.4672 111.186C47.9759 110.697 47.6995 110.034 47.6987 109.342V101.513C47.6987 100.821 47.9748 100.157 48.4663 99.6674C48.9578 99.178 49.6244 98.903 50.3194 98.903C51.0144 98.903 51.681 99.178 52.1725 99.6674C52.664 100.157 52.9401 100.821 52.9401 101.513V109.342C52.9393 110.034 52.6629 110.697 52.1716 111.186C51.6803 111.675 51.0142 111.951 50.3194 111.951Z" fill="#DADAFF"/>
  <path d="M57.3077 111.951C56.6129 111.951 55.9468 111.675 55.4555 111.186C54.9642 110.697 54.6878 110.034 54.687 109.342V101.513C54.687 100.821 54.9631 100.157 55.4546 99.6674C55.946 99.178 56.6126 98.903 57.3077 98.903C58.0027 98.903 58.6693 99.178 59.1608 99.6674C59.6522 100.157 59.9283 100.821 59.9283 101.513V109.342C59.9275 110.034 59.6512 110.697 59.1599 111.186C58.6686 111.675 58.0025 111.951 57.3077 111.951Z" fill="#DADAFF"/>
  <path d="M64.2969 111.951C63.6021 111.951 62.936 111.675 62.4447 111.186C61.9534 110.697 61.6771 110.034 61.6763 109.342V101.513C61.6763 100.821 61.9524 100.157 62.4438 99.6674C62.9353 99.178 63.6019 98.903 64.2969 98.903C64.992 98.903 65.6586 99.178 66.15 99.6674C66.6415 100.157 66.9176 100.821 66.9176 101.513V109.342C66.9168 110.034 66.6405 110.697 66.1492 111.186C65.6579 111.675 64.9917 111.951 64.2969 111.951Z" fill="#DADAFF"/>
  <path d="M75.0709 111.951C74.3761 111.951 73.71 111.675 73.2187 111.186C72.7274 110.697 72.451 110.034 72.4502 109.342V101.513C72.4502 100.821 72.7263 100.157 73.2178 99.6674C73.7092 99.178 74.3758 98.903 75.0709 98.903C75.7659 98.903 76.4325 99.178 76.924 99.6674C77.4154 100.157 77.6915 100.821 77.6915 101.513V109.342C77.6907 110.034 77.4144 110.697 76.9231 111.186C76.4318 111.675 75.7657 111.951 75.0709 111.951Z" fill="#DADAFF"/>
  <path d="M82.0587 111.951C81.3639 111.951 80.6978 111.675 80.2065 111.186C79.7152 110.697 79.4388 110.034 79.438 109.342V101.513C79.438 100.821 79.7141 100.157 80.2056 99.6674C80.697 99.178 81.3636 98.903 82.0587 98.903C82.7537 98.903 83.4203 99.178 83.9117 99.6674C84.4032 100.157 84.6793 100.821 84.6793 101.513V109.342C84.6785 110.034 84.4022 110.697 83.9109 111.186C83.4196 111.675 82.7535 111.951 82.0587 111.951Z" fill="#DADAFF"/>
  <path d="M89.0469 111.951C88.3521 111.951 87.686 111.675 87.1947 111.186C86.7034 110.697 86.4271 110.034 86.4263 109.342V101.513C86.4263 100.821 86.7024 100.157 87.1938 99.6674C87.6853 99.178 88.3519 98.903 89.0469 98.903C89.742 98.903 90.4086 99.178 90.9 99.6674C91.3915 100.157 91.6676 100.821 91.6676 101.513V109.342C91.6668 110.034 91.3905 110.697 90.8992 111.186C90.4079 111.675 89.7417 111.951 89.0469 111.951Z" fill="#DADAFF"/>
  <path d="M99.8209 111.951C99.1261 111.951 98.46 111.675 97.9687 111.186C97.4774 110.697 97.201 110.034 97.2002 109.342V101.513C97.2002 100.821 97.4763 100.157 97.9678 99.6674C98.4592 99.178 99.1258 98.903 99.8209 98.903C100.516 98.903 101.182 99.178 101.674 99.6674C102.165 100.157 102.442 100.821 102.442 101.513V109.342C102.441 110.034 102.164 110.697 101.673 111.186C101.182 111.675 100.516 111.951 99.8209 111.951Z" fill="#DADAFF"/>
  <path d="M106.809 111.951C106.114 111.951 105.448 111.675 104.957 111.186C104.466 110.697 104.189 110.034 104.188 109.342V101.513C104.188 100.821 104.465 100.157 104.956 99.6674C105.448 99.178 106.114 98.903 106.809 98.903C107.504 98.903 108.171 99.178 108.662 99.6674C109.154 100.157 109.43 100.821 109.43 101.513V109.342C109.429 110.034 109.153 110.697 108.661 111.186C108.17 111.675 107.504 111.951 106.809 111.951Z" fill="#DADAFF"/>
  <path d="M113.798 111.951C113.103 111.951 112.437 111.675 111.946 111.186C111.454 110.697 111.178 110.034 111.177 109.342V101.513C111.177 100.821 111.453 100.157 111.945 99.6674C112.436 99.178 113.103 98.903 113.798 98.903C114.493 98.903 115.16 99.178 115.651 99.6674C116.142 100.157 116.419 100.821 116.419 101.513V109.342C116.418 110.034 116.141 110.697 115.65 111.186C115.159 111.675 114.493 111.951 113.798 111.951Z" fill="#DADAFF"/>
  <path d="M124.571 111.951C123.877 111.951 123.21 111.675 122.719 111.186C122.228 110.697 121.951 110.034 121.951 109.342V101.513C121.951 100.821 122.227 100.157 122.718 99.6674C123.21 99.178 123.876 98.903 124.571 98.903C125.266 98.903 125.933 99.178 126.424 99.6674C126.916 100.157 127.192 100.821 127.192 101.513V109.342C127.191 110.034 126.915 110.697 126.424 111.186C125.932 111.675 125.266 111.951 124.571 111.951Z" fill="#DADAFF"/>
  <path d="M131.56 111.951C130.865 111.951 130.199 111.675 129.708 111.186C129.217 110.697 128.94 110.034 128.939 109.342V101.513C128.939 100.821 129.216 100.157 129.707 99.6674C130.199 99.178 130.865 98.903 131.56 98.903C132.255 98.903 132.922 99.178 133.413 99.6674C133.905 100.157 134.181 100.821 134.181 101.513V109.342C134.18 110.034 133.904 110.697 133.412 111.186C132.921 111.675 132.255 111.951 131.56 111.951Z" fill="#DADAFF"/>
  <path d="M138.548 111.951C137.854 111.951 137.188 111.675 136.696 111.186C136.205 110.697 135.929 110.034 135.928 109.342V101.513C135.928 100.821 136.204 100.157 136.695 99.6674C137.187 99.178 137.853 98.903 138.548 98.903C139.243 98.903 139.91 99.178 140.402 99.6674C140.893 100.157 141.169 100.821 141.169 101.513V109.342C141.168 110.034 140.892 110.697 140.401 111.186C139.909 111.675 139.243 111.951 138.548 111.951Z" fill="#DADAFF"/>
  <path d="M68.0868 140.996H30.3957C29.9286 140.996 29.4808 140.811 29.1505 140.482C28.8203 140.153 28.6348 139.707 28.6348 139.242C28.6348 138.777 28.8203 138.331 29.1505 138.002C29.4808 137.674 29.9286 137.489 30.3957 137.489H68.0868C68.5538 137.489 69.0017 137.674 69.3319 138.002C69.6621 138.331 69.8476 138.777 69.8476 139.242C69.8476 139.707 69.6621 140.153 69.3319 140.482C69.0017 140.811 68.5538 140.996 68.0868 140.996Z" fill="#E6E6E6"/>
  <path d="M56.0029 133.457H42.4801C42.0131 133.457 41.5652 133.272 41.235 132.943C40.9048 132.614 40.7192 132.168 40.7192 131.703C40.7192 131.238 40.9048 130.792 41.235 130.463C41.5652 130.135 42.0131 129.95 42.4801 129.95H56.0029C56.4699 129.95 56.9178 130.135 57.248 130.463C57.5782 130.792 57.7637 131.238 57.7637 131.703C57.7637 132.168 57.5782 132.614 57.248 132.943C56.9178 133.272 56.4699 133.457 56.0029 133.457Z" fill="#E6E6E6"/>
  <path d="M164.465 80.3455H20.9106V80.9254H164.465V80.3455Z" fill="black"/>
  </g>
  <defs>
  <linearGradient id="paint0_linear" x1="165.151" y1="146.918" x2="10.1758" y2="100.416" gradientUnits="userSpaceOnUse">
  <stop stop-color="#23244B"/>
  <stop offset="1" stop-color="#4E51FF"/>
  </linearGradient>
  <clipPath id="clip0">
  <rect width="165.152" height="150" fill="white"/>
  </clipPath>
  </defs>
  </svg>
  