<svg width="239" height="160" viewBox="0 0 239 160" fill="none" xmlns="http://www.w3.org/2000/svg">
  <g clip-path="url(#clip0)">
  <path d="M28.2305 36.7058H27.5996V70.2744H28.2305V36.7058Z" fill="#00004C" stroke="#828282"/>
  <path d="M28.2305 80.2668H27.5996V109.804H28.2305V80.2668Z" fill="#00004C" stroke="#828282"/>
  <path d="M75.5473 114.51H26.6533V115.137H75.5473V114.51Z" fill="#00004C" stroke="#828282"/>
  <path d="M6.46487 122.98H5.83398V149.647H6.46487V122.98Z" fill="#00004C" stroke="#828282"/>
  <path d="M85.6413 154.353H11.5117V154.98H85.6413V154.353Z" fill="#00004C" stroke="#828282"/>
  <path d="M147.469 15.3726H146.838V47.0588H147.469V15.3726Z" fill="#00004C" stroke="#828282"/>
  <path d="M142.106 52.0784H95.7251V52.7058H142.106V52.0784Z" fill="#00004C" stroke="#828282"/>
  <path d="M91.0039 57.098H90.373V99.451H91.0039V57.098Z" fill="#00004C" stroke="#828282"/>
  <path d="M27.9148 80.6274C26.8542 80.6274 25.8174 80.3146 24.9355 79.7285C24.0537 79.1425 23.3663 78.3096 22.9605 77.335C22.5546 76.3605 22.4484 75.2881 22.6553 74.2535C22.8622 73.219 23.3729 72.2687 24.1229 71.5228C24.8729 70.7769 25.8284 70.269 26.8686 70.0632C27.9089 69.8574 28.9871 69.963 29.967 70.3667C30.9469 70.7703 31.7844 71.4539 32.3736 72.331C32.9629 73.2081 33.2774 74.2392 33.2774 75.294C33.2758 76.708 32.7103 78.0637 31.705 79.0635C30.6996 80.0634 29.3366 80.6258 27.9148 80.6274ZM27.9148 70.5881C26.979 70.5881 26.0642 70.8641 25.286 71.3812C24.5079 71.8983 23.9014 72.6333 23.5433 73.4932C23.1852 74.3531 23.0915 75.2992 23.2741 76.2121C23.4566 77.125 23.9073 77.9635 24.569 78.6216C25.2307 79.2797 26.0739 79.7279 26.9917 79.9095C27.9096 80.0911 28.8609 79.9979 29.7255 79.6417C30.5901 79.2855 31.3291 78.6824 31.8491 77.9085C32.369 77.1346 32.6465 76.2248 32.6465 75.294C32.6451 74.0464 32.1461 72.8502 31.2591 71.968C30.372 71.0858 29.1693 70.5895 27.9148 70.5881Z" fill="#3F3D56"/>
  <path d="M6.46462 160C5.40401 160 4.36721 159.687 3.48534 159.101C2.60347 158.515 1.91614 157.682 1.51026 156.708C1.10438 155.733 0.998177 154.661 1.20509 153.626C1.41201 152.592 1.92275 151.641 2.67272 150.895C3.42269 150.149 4.3782 149.642 5.41843 149.436C6.45867 149.23 7.53691 149.336 8.51679 149.739C9.49667 150.143 10.3342 150.826 10.9234 151.704C11.5127 152.581 11.8272 153.612 11.8272 154.667C11.8256 156.081 11.2601 157.436 10.2548 158.436C9.24944 159.436 7.88638 159.998 6.46462 160ZM6.46462 149.961C5.52879 149.961 4.61396 150.237 3.83584 150.754C3.05772 151.271 2.45125 152.006 2.09312 152.866C1.73499 153.726 1.64129 154.672 1.82386 155.585C2.00644 156.498 2.45708 157.336 3.11882 157.994C3.78055 158.652 4.62366 159.1 5.54152 159.282C6.45937 159.464 7.41075 159.37 8.27535 159.014C9.13995 158.658 9.87894 158.055 10.3989 157.281C10.9188 156.507 11.1963 155.597 11.1963 154.667C11.1949 153.419 10.6959 152.223 9.80888 151.341C8.92182 150.458 7.71911 149.962 6.46462 149.961Z" fill="#3F3D56"/>
  <path d="M28.2302 119.843C31.0177 119.843 33.2773 117.596 33.2773 114.824C33.2773 112.051 31.0177 109.804 28.2302 109.804C25.4428 109.804 23.1831 112.051 23.1831 114.824C23.1831 117.596 25.4428 119.843 28.2302 119.843Z" fill="#001DC6"/>
  <path d="M210.873 74.9803H158.509V75.6078H210.873V74.9803Z" fill="#00004C" stroke="#828282"/>
  <path d="M153.777 80.2668H153.146V109.804H153.777V80.2668Z" fill="#00004C" stroke="#828282"/>
  <path d="M148.1 114.51H106.146V115.137H148.1V114.51Z" fill="#00004C" stroke="#828282"/>
  <path d="M223.491 117.333H179.959V117.961H223.491V117.333Z" fill="#00004C" stroke="#828282"/>
  <path d="M175.543 122.98H174.912V149.647H175.543V122.98Z" fill="#00004C" stroke="#828282"/>
  <path d="M169.865 154.353H95.7358V154.98H169.865V154.353Z" fill="#00004C" stroke="#828282"/>
  <path d="M91.0039 130.196H90.373V149.647H91.0039V130.196Z" fill="#00004C" stroke="#828282"/>
  <path d="M153.462 80.3137C156.249 80.3137 158.509 78.0664 158.509 75.2941C158.509 72.5219 156.249 70.2745 153.462 70.2745C150.674 70.2745 148.415 72.5219 148.415 75.2941C148.415 78.0664 150.674 80.3137 153.462 80.3137Z" fill="#001DC6"/>
  <path d="M147.153 57.4117C146.092 57.4117 145.056 57.0989 144.174 56.5128C143.292 55.9268 142.605 55.0939 142.199 54.1193C141.793 53.1448 141.687 52.0724 141.894 51.0379C142.1 50.0033 142.611 49.053 143.361 48.3071C144.111 47.5612 145.067 47.0533 146.107 46.8475C147.147 46.6417 148.225 46.7473 149.205 47.151C150.185 47.5546 151.023 48.2382 151.612 49.1153C152.201 49.9924 152.516 51.0235 152.516 52.0783C152.514 53.4923 151.949 54.848 150.943 55.8478C149.938 56.8477 148.575 57.4101 147.153 57.4117ZM147.153 47.3724C146.217 47.3724 145.302 47.6484 144.524 48.1655C143.746 48.6826 143.14 49.4176 142.782 50.2775C142.423 51.1374 142.33 52.0836 142.512 52.9964C142.695 53.9093 143.146 54.7478 143.807 55.4059C144.469 56.064 145.312 56.5122 146.23 56.6938C147.148 56.8754 148.099 56.7822 148.964 56.426C149.828 56.0698 150.567 55.4667 151.087 54.6928C151.607 53.9189 151.885 53.0091 151.885 52.0783C151.883 50.8307 151.384 49.6345 150.497 48.7523C149.61 47.8701 148.408 47.3738 147.153 47.3724Z" fill="#3F3D56"/>
  <path d="M90.6887 57.4117C89.6281 57.4117 88.5913 57.0989 87.7095 56.5128C86.8276 55.9268 86.1403 55.0939 85.7344 54.1193C85.3285 53.1448 85.2223 52.0724 85.4292 51.0379C85.6361 50.0033 86.1469 49.053 86.8968 48.3071C87.6468 47.5612 88.6023 47.0533 89.6426 46.8475C90.6828 46.6417 91.761 46.7473 92.7409 47.151C93.7208 47.5546 94.5583 48.2382 95.1476 49.1153C95.7368 49.9924 96.0513 51.0235 96.0513 52.0783C96.0497 53.4923 95.4842 54.848 94.4789 55.8478C93.4736 56.8477 92.1105 57.4101 90.6887 57.4117ZM90.6887 47.3724C89.7529 47.3724 88.8381 47.6484 88.06 48.1655C87.2818 48.6826 86.6754 49.4176 86.3172 50.2775C85.9591 51.1374 85.8654 52.0836 86.048 52.9964C86.2305 53.9093 86.6812 54.7478 87.3429 55.4059C88.0047 56.064 88.8478 56.5122 89.7656 56.6938C90.6835 56.8754 91.6349 56.7822 92.4995 56.426C93.3641 56.0698 94.1031 55.4667 94.623 54.6928C95.1429 53.9189 95.4204 53.0091 95.4204 52.0783C95.419 50.8307 94.9201 49.6345 94.033 48.7523C93.1459 47.8701 91.9432 47.3738 90.6887 47.3724Z" fill="#3F3D56"/>
  <path d="M174.912 123.294C173.852 123.294 172.815 122.981 171.933 122.395C171.051 121.809 170.364 120.976 169.958 120.002C169.552 119.027 169.446 117.955 169.653 116.92C169.86 115.886 170.37 114.935 171.12 114.189C171.87 113.444 172.826 112.936 173.866 112.73C174.906 112.524 175.985 112.63 176.965 113.033C177.944 113.437 178.782 114.121 179.371 114.998C179.96 115.875 180.275 116.906 180.275 117.961C180.273 119.375 179.708 120.73 178.703 121.73C177.697 122.73 176.334 123.292 174.912 123.294ZM174.912 113.255C173.977 113.255 173.062 113.531 172.284 114.048C171.505 114.565 170.899 115.3 170.541 116.16C170.183 117.02 170.089 117.966 170.272 118.879C170.454 119.792 170.905 120.63 171.567 121.288C172.228 121.946 173.071 122.395 173.989 122.576C174.907 122.758 175.859 122.665 176.723 122.308C177.588 121.952 178.327 121.349 178.847 120.575C179.367 119.801 179.644 118.891 179.644 117.961C179.643 116.713 179.144 115.517 178.257 114.635C177.37 113.752 176.167 113.256 174.912 113.255Z" fill="#3F3D56"/>
  <path d="M174.912 159.686C177.699 159.686 179.959 157.439 179.959 154.667C179.959 151.894 177.699 149.647 174.912 149.647C172.124 149.647 169.865 151.894 169.865 154.667C169.865 157.439 172.124 159.686 174.912 159.686Z" fill="#001DC6"/>
  <path d="M90.6887 160C89.6281 160 88.5913 159.687 87.7095 159.101C86.8276 158.515 86.1403 157.682 85.7344 156.708C85.3285 155.733 85.2223 154.661 85.4292 153.626C85.6361 152.592 86.1469 151.641 86.8968 150.895C87.6468 150.149 88.6023 149.642 89.6426 149.436C90.6828 149.23 91.761 149.336 92.7409 149.739C93.7208 150.143 94.5583 150.826 95.1476 151.704C95.7368 152.581 96.0513 153.612 96.0513 154.667C96.0497 156.081 95.4842 157.436 94.4789 158.436C93.4736 159.436 92.1105 159.998 90.6887 160ZM90.6887 149.961C89.7529 149.961 88.8381 150.237 88.06 150.754C87.2818 151.271 86.6754 152.006 86.3172 152.866C85.9591 153.726 85.8654 154.672 86.048 155.585C86.2305 156.498 86.6812 157.336 87.3429 157.994C88.0047 158.652 88.8478 159.1 89.7656 159.282C90.6835 159.464 91.6349 159.37 92.4995 159.014C93.3641 158.658 94.1031 158.055 94.623 157.281C95.1429 156.507 95.4204 155.597 95.4204 154.667C95.419 153.419 94.9201 152.223 94.033 151.341C93.1459 150.458 91.9432 149.962 90.6887 149.961Z" fill="#3F3D56"/>
  <path d="M153.147 120.157C152.086 120.157 151.049 119.844 150.167 119.258C149.286 118.672 148.598 117.839 148.192 116.864C147.787 115.89 147.68 114.818 147.887 113.783C148.094 112.748 148.605 111.798 149.355 111.052C150.105 110.306 151.06 109.798 152.101 109.593C153.141 109.387 154.219 109.492 155.199 109.896C156.179 110.3 157.016 110.983 157.606 111.86C158.195 112.737 158.509 113.769 158.509 114.823C158.508 116.237 157.942 117.593 156.937 118.593C155.932 119.593 154.569 120.155 153.147 120.157ZM153.147 110.118C152.211 110.118 151.296 110.394 150.518 110.911C149.74 111.428 149.133 112.163 148.775 113.023C148.417 113.882 148.323 114.829 148.506 115.742C148.689 116.654 149.139 117.493 149.801 118.151C150.463 118.809 151.306 119.257 152.224 119.439C153.142 119.62 154.093 119.527 154.958 119.171C155.822 118.815 156.561 118.212 157.081 117.438C157.601 116.664 157.878 115.754 157.878 114.823C157.877 113.576 157.378 112.38 156.491 111.497C155.604 110.615 154.401 110.119 153.147 110.118Z" fill="#3F3D56"/>
  <path d="M6.46368 107.294C5.2159 107.294 3.99615 107.662 2.95865 108.352C1.92116 109.041 1.11252 110.021 0.635019 111.167C0.157513 112.314 0.0325833 113.576 0.276014 114.793C0.519444 116.01 1.12031 117.128 2.00262 118.005C2.88494 118.883 4.00908 119.48 5.23288 119.723C6.45669 119.965 7.72519 119.84 8.87799 119.365C10.0308 118.891 11.0161 118.086 11.7093 117.055C12.4026 116.023 12.7726 114.81 12.7726 113.569C12.7677 111.906 12.1014 110.313 10.9193 109.137C9.73726 107.962 8.1354 107.299 6.46368 107.294ZM6.46368 109.176C6.83802 109.176 7.20395 109.287 7.5152 109.494C7.82645 109.7 8.06903 109.994 8.21228 110.338C8.35553 110.682 8.39301 111.061 8.31999 111.426C8.24696 111.791 8.0667 112.127 7.80201 112.39C7.53731 112.653 7.20007 112.832 6.83292 112.905C6.46578 112.978 6.08523 112.94 5.73939 112.798C5.39355 112.655 5.09795 112.414 4.88998 112.105C4.68201 111.795 4.57101 111.431 4.57101 111.059C4.57269 110.56 4.77263 110.082 5.12721 109.73C5.48179 109.377 5.96223 109.178 6.46368 109.176ZM6.46368 118.238C5.71601 118.235 4.98045 118.05 4.32082 117.7C3.66119 117.35 3.09739 116.845 2.67835 116.229C2.70868 114.974 5.2019 114.284 6.46368 114.284C7.72546 114.284 10.2187 114.974 10.249 116.229C9.8295 116.845 9.2656 117.349 8.60608 117.699C7.94655 118.049 7.21124 118.234 6.46368 118.238Z" fill="#3F3D56"/>
  <path d="M28.2303 21.6471C26.9825 21.6471 25.7627 22.0151 24.7253 22.7045C23.6878 23.394 22.8791 24.3739 22.4016 25.5205C21.9241 26.667 21.7992 27.9286 22.0426 29.1457C22.286 30.3628 22.8869 31.4808 23.7692 32.3584C24.6515 33.2359 25.7757 33.8335 26.9995 34.0756C28.2233 34.3177 29.4918 34.1934 30.6446 33.7185C31.7974 33.2436 32.7827 32.4394 33.4759 31.4075C34.1692 30.3757 34.5392 29.1626 34.5392 27.9216C34.5343 26.259 33.868 24.6659 32.6859 23.4902C31.5039 22.3146 29.902 21.652 28.2303 21.6471ZM28.2303 23.5294C28.6046 23.5294 28.9706 23.6398 29.2818 23.8467C29.593 24.0535 29.8356 24.3475 29.9789 24.6915C30.1221 25.0354 30.1596 25.4139 30.0866 25.779C30.0136 26.1442 29.8333 26.4796 29.5686 26.7428C29.3039 27.0061 28.9667 27.1854 28.5995 27.258C28.2324 27.3306 27.8518 27.2933 27.506 27.1509C27.1601 27.0084 26.8646 26.7671 26.6566 26.4576C26.4486 26.148 26.3376 25.7841 26.3376 25.4118C26.3393 24.9131 26.5392 24.4353 26.8938 24.0826C27.2484 23.73 27.7288 23.5311 28.2303 23.5294ZM28.2303 32.5913C27.4826 32.5879 26.7471 32.4031 26.0874 32.053C25.4278 31.7029 24.864 31.1981 24.4449 30.5822C24.4753 29.3273 26.9685 28.6365 28.2303 28.6365C29.4921 28.6365 31.9853 29.3273 32.0156 30.5822C31.5961 31.1976 31.0322 31.7021 30.3727 32.0522C29.7131 32.4022 28.9778 32.5872 28.2303 32.5913Z" fill="#3F3D56"/>
  <path d="M147.153 0C145.905 0 144.686 0.367995 143.648 1.05745C142.611 1.7469 141.802 2.72684 141.324 3.87336C140.847 5.01988 140.722 6.28147 140.965 7.49861C141.209 8.71574 141.81 9.83375 142.692 10.7113C143.574 11.5888 144.699 12.1864 145.922 12.4285C147.146 12.6706 148.415 12.5463 149.567 12.0714C150.72 11.5965 151.706 10.7923 152.399 9.76044C153.092 8.7286 153.462 7.51549 153.462 6.27451C153.457 4.6119 152.791 3.01878 151.609 1.84314C150.427 0.667492 148.825 0.00486663 147.153 0ZM147.153 1.88235C147.527 1.88235 147.893 1.99275 148.205 2.19959C148.516 2.40642 148.758 2.70041 148.902 3.04436C149.045 3.38832 149.082 3.7668 149.009 4.13194C148.936 4.49708 148.756 4.83248 148.491 5.09573C148.227 5.35898 147.89 5.53826 147.522 5.61089C147.155 5.68352 146.775 5.64625 146.429 5.50377C146.083 5.3613 145.787 5.12004 145.579 4.81049C145.371 4.50094 145.26 4.137 145.26 3.76471C145.262 3.26599 145.462 2.78817 145.817 2.43552C146.171 2.08287 146.652 1.88402 147.153 1.88235ZM147.153 10.9442C146.405 10.9408 145.67 10.756 145.01 10.4059C144.351 10.0559 143.787 9.55099 143.368 8.93515C143.398 7.68024 145.891 6.98944 147.153 6.98944C148.415 6.98944 150.908 7.68024 150.938 8.93515C150.519 9.55052 149.955 10.055 149.296 10.4051C148.636 10.7551 147.901 10.9402 147.153 10.9442Z" fill="#3F3D56"/>
  <path d="M219.705 68.7059C218.458 68.7059 217.238 69.0739 216.2 69.7634C215.163 70.4528 214.354 71.4328 213.877 72.5793C213.399 73.7258 213.274 74.9874 213.518 76.2045C213.761 77.4217 214.362 78.5397 215.244 79.4172C216.127 80.2947 217.251 80.8923 218.475 81.1344C219.698 81.3765 220.967 81.2522 222.12 80.7773C223.273 80.3024 224.258 79.4982 224.951 78.4664C225.644 77.4345 226.014 76.2214 226.014 74.9804C226.009 73.3178 225.343 71.7247 224.161 70.5491C222.979 69.3734 221.377 68.7108 219.705 68.7059ZM219.705 70.5883C220.08 70.5883 220.446 70.6987 220.757 70.9055C221.068 71.1124 221.311 71.4063 221.454 71.7503C221.597 72.0942 221.635 72.4727 221.562 72.8379C221.489 73.203 221.308 73.5384 221.044 73.8017C220.779 74.0649 220.442 74.2442 220.075 74.3168C219.707 74.3895 219.327 74.3522 218.981 74.2097C218.635 74.0672 218.34 73.826 218.132 73.5164C217.924 73.2069 217.813 72.8429 217.813 72.4706C217.814 71.9719 218.014 71.4941 218.369 71.1415C218.724 70.7888 219.204 70.59 219.705 70.5883ZM219.705 79.6501C218.958 79.6467 218.222 79.462 217.563 79.1119C216.903 78.7618 216.339 78.2569 215.92 77.6411C215.95 76.3862 218.444 75.6954 219.705 75.6954C220.967 75.6954 223.46 76.3862 223.491 77.6411C223.071 78.2565 222.507 78.761 221.848 79.111C221.188 79.4611 220.453 79.6461 219.705 79.6501Z" fill="#3F3D56"/>
  <path d="M231.692 111.059C230.444 111.059 229.225 111.427 228.187 112.116C227.15 112.806 226.341 113.786 225.864 114.932C225.386 116.079 225.261 117.34 225.505 118.557C225.748 119.775 226.349 120.893 227.231 121.77C228.113 122.648 229.238 123.245 230.461 123.487C231.685 123.729 232.954 123.605 234.107 123.13C235.259 122.655 236.245 121.851 236.938 120.819C237.631 119.787 238.001 118.574 238.001 117.333C237.996 115.671 237.33 114.078 236.148 112.902C234.966 111.726 233.364 111.064 231.692 111.059ZM231.692 112.941C232.067 112.941 232.432 113.052 232.744 113.258C233.055 113.465 233.298 113.759 233.441 114.103C233.584 114.447 233.622 114.826 233.548 115.191C233.475 115.556 233.295 115.891 233.03 116.155C232.766 116.418 232.429 116.597 232.061 116.67C231.694 116.742 231.314 116.705 230.968 116.563C230.622 116.42 230.326 116.179 230.118 115.869C229.911 115.56 229.8 115.196 229.8 114.824C229.801 114.325 230.001 113.847 230.356 113.494C230.71 113.142 231.191 112.943 231.692 112.941ZM231.692 122.003C230.945 122 230.209 121.815 229.549 121.465C228.89 121.115 228.326 120.61 227.907 119.994C227.937 118.739 230.43 118.048 231.692 118.048C232.954 118.048 235.447 118.739 235.478 119.994C235.058 120.609 234.494 121.114 233.835 121.464C233.175 121.814 232.44 121.999 231.692 122.003Z" fill="#3F3D56"/>
  <path d="M91.0917 110.954L90.4453 113.531C91.1781 113.713 93.4367 114.454 93.8026 112.996C94.184 111.475 91.8244 111.136 91.0917 110.954Z" fill="#001DC6"/>
  <path d="M90.1192 114.832L89.4062 117.674C90.286 117.891 92.9998 118.758 93.4011 117.155C93.8203 115.483 90.9989 115.05 90.1192 114.832Z" fill="#001DC6"/>
  <path d="M94.0129 103.282C91.7432 102.719 89.3568 102.838 87.1552 103.624C84.9537 104.411 83.036 105.828 81.6446 107.698C80.2532 109.568 79.4506 111.807 79.3383 114.13C79.2261 116.454 79.8091 118.759 81.0138 120.753C82.2185 122.747 83.9907 124.341 86.1063 125.333C88.2219 126.326 90.5858 126.672 92.8993 126.328C95.2127 125.985 97.3717 124.966 99.1032 123.402C100.835 121.838 102.061 119.798 102.627 117.541C103.003 116.042 103.079 114.485 102.849 112.957C102.62 111.429 102.09 109.961 101.29 108.637C100.49 107.313 99.4357 106.158 98.187 105.239C96.9384 104.321 95.52 103.656 94.0129 103.282ZM96.3667 113.019C96.1961 114.165 95.5576 114.72 94.7094 114.914C95.8737 115.517 96.4664 116.442 95.9017 118.045C95.2015 120.036 93.5369 120.204 91.324 119.787L90.7868 121.928L89.4888 121.606L90.0187 119.494C89.673 119.409 89.3282 119.32 88.9844 119.227L88.4525 121.349L87.1561 121.028L87.6933 118.883C87.3901 118.806 87.0822 118.724 86.7681 118.645L85.0792 118.226L85.7233 116.749C85.7233 116.749 86.6797 117.002 86.6668 116.983C86.7261 117.002 86.7886 117.009 86.8506 117.004C86.9126 116.999 86.9731 116.982 87.0283 116.953C87.0836 116.925 87.1326 116.885 87.1726 116.838C87.2127 116.791 87.2428 116.736 87.2614 116.677L88.1103 113.292C88.1579 113.304 88.2043 113.315 88.2472 113.326C88.2032 113.309 88.1583 113.295 88.1125 113.283L88.7178 110.867C88.7359 110.688 88.6826 110.51 88.5696 110.369C88.4565 110.229 88.2926 110.138 88.1131 110.117C88.1336 110.103 87.1706 109.884 87.1706 109.884L87.516 108.505L89.3061 108.949L89.3045 108.956C89.5736 109.023 89.8509 109.086 90.1335 109.15L90.6654 107.03L91.9625 107.351L91.4414 109.43C91.7896 109.509 92.1401 109.589 92.4814 109.673L92.999 107.608L94.2968 107.93L93.7652 110.051C95.4037 110.612 96.602 111.453 96.3667 113.019Z" fill="#001DC6"/>
  </g>
  <defs>
  <clipPath id="clip0">
  <rect width="238.161" height="160" fill="white"/>
  </clipPath>
  </defs>
  </svg>
  