<svg width="197" height="32" viewBox="0 0 197 32" fill="none" xmlns="http://www.w3.org/2000/svg">
  <path d="M61.1815 19.8637H62.4832C62.5673 20.2034 62.6463 20.6118 62.7203 21.089C62.7943 21.5662 62.8576 22.0755 62.9103 22.6168C62.9626 23.1581 62.9996 23.6939 63.0213 24.2241C63.043 24.7542 63.0536 25.2317 63.0532 25.6564C62.3135 26.1234 61.3889 26.4523 60.2793 26.6433C59.1547 26.8356 58.0159 26.9315 56.8751 26.9298C55.1225 26.9298 53.5337 26.7123 52.1089 26.2774C50.6841 25.8425 49.47 25.1529 48.4668 24.2087C47.4636 23.2646 46.6879 22.0657 46.1395 20.6123C45.5912 19.1588 45.3169 17.4136 45.3164 15.3765C45.3164 13.3609 45.6169 11.6263 46.2179 10.1728C46.8189 8.71939 47.6268 7.52592 48.6416 6.59242C49.6561 5.65823 50.8611 4.95774 52.1727 4.5398C53.54 4.10075 54.9675 3.8806 56.4028 3.88742C57.6706 3.87719 58.9369 3.97841 60.1871 4.18991C61.3165 4.39158 62.2411 4.66201 62.961 5.00121C62.961 5.34087 62.9452 5.77579 62.9138 6.30596C62.8824 6.83614 62.8297 7.39373 62.7557 7.97873C62.6817 8.56234 62.5973 9.13526 62.5026 9.69749C62.4078 10.2597 62.3181 10.7318 62.2335 11.1138H60.8965L59.1545 6.30596C58.9645 6.20002 58.6585 6.11522 58.2364 6.05156C57.8057 5.98718 57.3708 5.95526 56.9354 5.95608C56.0953 5.95138 55.2642 6.13071 54.5 6.4816C53.7399 6.83195 53.0643 7.38954 52.473 8.15437C51.8817 8.91919 51.4173 9.90055 51.0798 11.0984C50.7419 12.2977 50.5729 13.7354 50.5729 15.4114C50.5729 18.4461 51.1739 20.7803 52.3759 22.414C53.5779 24.0477 55.214 24.8646 57.2842 24.8646C57.7893 24.8733 58.2938 24.8254 58.7884 24.7217C59.2003 24.6265 59.48 24.4938 59.6275 24.3237L61.1815 19.8637Z" fill="#00004C"/>
  <path d="M64.3873 18.5926C64.3873 17.2986 64.5827 16.1369 64.9733 15.1077C65.3332 14.1168 65.9076 13.2187 66.6552 12.4784C67.4027 11.738 68.3046 11.1739 69.2957 10.8268C70.3299 10.4449 71.5016 10.2539 72.8109 10.2539C74.2903 10.2539 75.5616 10.4609 76.6249 10.8749C77.6882 11.2889 78.5643 11.8619 79.2532 12.5937C79.9507 13.3457 80.4655 14.2498 80.7573 15.2353C81.0826 16.3243 81.2428 17.4563 81.2323 18.5933C81.2323 19.8879 81.0423 21.0495 80.6623 22.0783C80.3078 23.0665 79.7393 23.9633 78.998 24.7038C78.2413 25.4431 77.3336 26.0079 76.3378 26.3591C75.293 26.7411 74.116 26.9321 72.8067 26.9321C71.3708 26.9321 70.1251 26.7251 69.0696 26.3111C68.0142 25.897 67.1381 25.3241 66.4414 24.5923C65.7326 23.8405 65.2021 22.9375 64.8894 21.9507C64.5447 20.8655 64.3752 19.7318 64.3873 18.5926ZM69.2957 18.5926C69.2903 19.4709 69.3485 20.3484 69.4697 21.2182C69.5853 22.0137 69.7913 22.6874 70.0876 23.2394C70.3635 23.7713 70.7788 24.2172 71.2887 24.5289C71.7973 24.8365 72.4517 24.9903 73.2519 24.9903C73.6964 24.9957 74.1342 24.8803 74.5189 24.6564C74.8989 24.4338 75.2262 24.073 75.5008 23.574C75.7754 23.075 75.9814 22.4172 76.1187 21.6008C76.2574 20.7844 76.3267 19.7819 76.3267 18.5933C76.3328 17.7097 76.2747 16.8268 76.1527 15.9518C76.0366 15.167 75.836 14.4985 75.5508 13.9465C75.2882 13.4202 74.8891 12.9749 74.3954 12.6578C73.9086 12.3511 73.2961 12.1978 72.5578 12.1978C72.0085 12.1978 71.5335 12.3091 71.1327 12.5317C70.7319 12.7542 70.3941 13.115 70.1195 13.6141C69.8449 14.1126 69.639 14.7704 69.5016 15.5872C69.3643 16.4041 69.2957 17.4059 69.2957 18.5926Z" fill="#00004C"/>
  <path d="M90.2963 26.5517H81.5586V25.3418C81.8739 25.1718 82.2023 25.0276 82.5405 24.9103C82.878 24.7928 83.2479 24.6808 83.6501 24.5744V12.865L81.56 12.6085V11.4014C81.948 11.2509 82.3444 11.1234 82.7472 11.0194C83.2224 10.8921 83.7238 10.7808 84.2513 10.6855C84.7788 10.5903 85.2961 10.5055 85.8033 10.4311C86.3118 10.3573 86.7552 10.299 87.1334 10.2562H88.2082V24.5765C88.6303 24.6829 89.0103 24.7944 89.3483 24.911C89.6776 25.0245 89.9957 25.1687 90.2983 25.3418L90.2963 26.5517ZM83.1709 5.41773C83.1709 4.67428 83.4212 4.0909 83.9219 3.6676C84.4226 3.2443 85.0698 3.03218 85.8636 3.03125C86.6565 3.03125 87.3037 3.24337 87.8053 3.6676C88.3069 4.09183 88.5568 4.67521 88.555 5.41773C88.555 6.13934 88.3046 6.71226 87.8039 7.1365C87.3033 7.56073 86.656 7.77284 85.8622 7.77284C85.0689 7.77284 84.4217 7.56073 83.9205 7.1365C83.4194 6.71226 83.1695 6.13934 83.1709 5.41773Z" fill="#00004C"/>
  <path d="M110.065 26.5497H101.674V25.3398C101.949 25.1911 102.218 25.0582 102.482 24.9411C102.747 24.824 103.058 24.7018 103.416 24.5745V17.0763C103.416 15.7367 103.226 14.6891 102.846 13.9336C102.466 13.1781 101.791 12.8005 100.819 12.801C100.054 12.787 99.3125 13.0667 98.7453 13.583C98.1641 14.1044 97.725 14.8116 97.4277 15.7046V24.5745C97.7361 24.65 98.0376 24.7515 98.3292 24.8777C98.6203 25.0101 98.9008 25.1648 99.1683 25.3405V26.5497H90.7773V25.3398C91.3048 25.061 92.0015 24.8054 92.8675 24.5731V12.8637L90.7773 12.6072V11.3994C91.1253 11.2467 91.4856 11.1243 91.8543 11.0334C92.2977 10.9168 92.778 10.8053 93.2953 10.6989C93.8126 10.5925 94.3404 10.5023 94.8785 10.4285C95.4171 10.3546 95.9081 10.2963 96.3514 10.2535H97.4325V13.5293H97.4644C97.9055 12.6414 98.5696 11.8721 99.4568 11.2216C100.344 10.5711 101.421 10.2475 102.687 10.2507C103.438 10.2403 104.185 10.3425 104.906 10.5539C105.549 10.7478 106.125 11.1178 106.57 11.6224C107.024 12.1335 107.373 12.8193 107.615 13.6799C107.858 14.5404 107.979 15.6301 107.979 16.9488V24.5745C108.824 24.7236 109.52 24.9792 110.07 25.3412L110.065 26.5497Z" fill="#00004C"/>
  <path d="M129.625 26.5499H121.234V25.3399C121.488 25.1912 121.751 25.0518 122.025 24.9217C122.333 24.7825 122.651 24.666 122.976 24.5732V18.1289C122.976 16.3 122.801 14.9546 122.453 14.0926C122.105 13.2307 121.424 12.8 120.411 12.8004C120.012 12.7929 119.615 12.8668 119.245 13.0176C118.875 13.1684 118.539 13.393 118.258 13.6779C117.679 14.2407 117.243 14.9355 116.987 15.7034V24.5746C117.293 24.6501 117.594 24.746 117.888 24.8618C118.186 24.9871 118.468 25.1476 118.727 25.3399V26.5492H110.336V25.3399C110.998 24.9968 111.7 24.7392 112.427 24.5732V5.22767L110.02 4.97188V3.764C110.417 3.61091 110.825 3.48334 111.239 3.38206C111.734 3.25474 112.257 3.14345 112.806 3.0482C113.355 2.95295 113.905 2.86629 114.456 2.78822C115.005 2.71388 115.491 2.65557 115.913 2.61328H116.987V13.8487H117.019C117.237 13.3489 117.525 12.8828 117.874 12.4645C118.23 12.032 118.64 11.647 119.093 11.3186C119.545 10.9905 120.041 10.728 120.566 10.5387C121.104 10.3458 121.672 10.2489 122.244 10.2522C123.01 10.2415 123.773 10.3437 124.509 10.5554C125.154 10.744 125.732 11.1149 126.173 11.6239C126.616 12.135 126.954 12.8209 127.186 13.6814C127.418 14.542 127.534 15.6316 127.533 16.9503V24.5746C127.892 24.6596 128.251 24.7554 128.609 24.8618C128.969 24.9687 129.311 25.1299 129.622 25.3399L129.625 26.5499Z" fill="#00004C"/>
  <path d="M143.876 21.9359C143.876 22.4005 143.882 22.8036 143.892 23.1452C143.903 23.4867 143.929 23.8475 143.971 24.2276L146.156 24.5461V25.6613C145.825 25.818 145.481 25.9458 145.127 26.0432C144.694 26.1705 144.24 26.2925 143.765 26.4091C143.291 26.5258 142.821 26.6215 142.356 26.6963C141.894 26.7706 141.482 26.829 141.121 26.8712H140.044C139.839 26.4074 139.711 25.913 139.664 25.4076C139.622 24.9197 139.59 24.3256 139.569 23.6254H139.411C139.301 24.061 139.119 24.4751 138.873 24.8507C138.612 25.2525 138.285 25.6075 137.907 25.901C137.49 26.2228 137.025 26.4753 136.529 26.6489C135.959 26.8468 135.359 26.9438 134.756 26.9354C134.098 26.9417 133.445 26.834 132.824 26.6168C132.256 26.4169 131.731 26.113 131.273 25.7205C130.83 25.3393 130.474 24.867 130.228 24.3356C129.968 23.7615 129.838 23.1362 129.848 22.5053C129.848 21.5505 130.028 20.7654 130.386 20.1502C130.745 19.535 131.31 19.0311 132.08 18.6385C132.851 18.2463 133.844 17.9545 135.058 17.763C136.272 17.5716 137.744 17.4336 139.475 17.349C139.644 15.5243 139.57 14.1875 139.253 13.3386C138.936 12.4896 138.25 12.0652 137.195 12.0652C136.579 12.0588 135.968 12.1667 135.392 12.3837L133.904 16.2032H132.508C132.324 15.9231 132.16 15.6306 132.017 15.3278C131.858 14.9993 131.71 14.6491 131.574 14.2774C131.437 13.9076 131.321 13.5304 131.227 13.1476C131.134 12.7807 131.064 12.4082 131.019 12.0324C131.821 11.4809 132.855 11.046 134.122 10.7277C135.438 10.4035 136.789 10.2431 138.144 10.2502C139.346 10.2502 140.328 10.3829 141.089 10.6482C141.851 10.9135 142.447 11.2743 142.878 11.7306C143.308 12.1823 143.618 12.7348 143.78 13.3379C143.952 13.9811 144.038 14.6449 144.033 15.311C144.033 16.5842 144.007 17.7354 143.954 18.7646C143.901 19.7938 143.875 20.8509 143.876 21.9359ZM136.752 24.3865C137.147 24.3978 137.538 24.3103 137.892 24.1321C138.192 23.9753 138.464 23.771 138.7 23.5271C138.914 23.3048 139.086 23.0449 139.207 22.7604C139.309 22.5215 139.399 22.2772 139.476 22.0286V18.8489C138.483 18.8703 137.67 18.934 137.037 19.0399C136.404 19.1459 135.908 19.3208 135.549 19.5647C135.209 19.7847 134.948 20.1081 134.804 20.4876C134.666 20.8593 134.596 21.3102 134.596 21.8404C134.596 22.647 134.786 23.2729 135.166 23.7181C135.546 24.1632 136.075 24.386 136.752 24.3865Z" fill="#00004C"/>
  <path d="M152.371 26.9329L146.038 12.612C145.454 12.4126 144.892 12.1558 144.359 11.8453V10.6367H152.688V11.8146C152.413 11.9638 152.134 12.1076 151.849 12.2461C151.537 12.3945 151.214 12.5174 150.883 12.6134L153.828 20.7848L154.43 22.9232H154.493L155 20.7521L157.693 12.612C157.373 12.5335 157.061 12.4269 156.759 12.2935C156.478 12.1675 156.208 12.0178 155.952 11.846V10.6367H162.062V11.846C161.819 12.0135 161.559 12.1537 161.286 12.2642C160.951 12.4014 160.607 12.5178 160.257 12.6127L154.711 26.5496L152.371 26.9329Z" fill="#00004C"/>
  <path d="M175.896 23.8768C175.692 24.2865 175.419 24.6578 175.089 24.9745C174.687 25.37 174.228 25.7027 173.727 25.9615C173.134 26.2675 172.507 26.5015 171.859 26.6584C171.108 26.8439 170.337 26.9347 169.563 26.9289C168.254 26.9289 167.093 26.7325 166.08 26.3399C165.067 25.9473 164.222 25.385 163.546 24.6532C162.856 23.8966 162.333 23.0019 162.01 22.0277C161.662 21.0091 161.488 19.8633 161.488 18.5901C161.488 15.8742 162.196 13.8065 163.61 12.387C165.025 10.9674 166.988 10.2565 169.501 10.2542C170.525 10.2465 171.545 10.3967 172.525 10.6996C173.421 10.97 174.23 11.4752 174.868 12.1632C175.49 12.8426 175.923 13.7338 176.166 14.8369C176.409 15.94 176.393 17.2875 176.118 18.8794H166.397C166.417 20.5559 166.845 21.8927 167.679 22.8898C168.513 23.887 169.743 24.3856 171.368 24.3856C172.102 24.3801 172.832 24.2729 173.537 24.067C174.286 23.8552 174.872 23.5794 175.295 23.2397L175.896 23.8768ZM169.356 12.0684C168.972 12.0615 168.591 12.1376 168.238 12.2915C167.915 12.4402 167.631 12.7108 167.388 13.1035C167.145 13.4961 166.951 14.0265 166.806 14.6947C166.659 15.3633 166.555 16.2069 166.492 17.2254H171.559C171.706 15.5703 171.612 14.2972 171.276 13.406C170.94 12.5147 170.3 12.0689 169.356 12.0684Z" fill="#00004C"/>
  <path d="M196.8 26.5497H188.409V25.3398C188.683 25.1911 188.952 25.0582 189.217 24.9411C189.481 24.824 189.793 24.7018 190.151 24.5745V17.0763C190.151 15.7367 189.961 14.6891 189.581 13.9336C189.201 13.1781 188.525 12.8005 187.554 12.801C186.789 12.787 186.047 13.0667 185.48 13.583C184.899 14.1044 184.459 14.8116 184.162 15.7046V24.5745C184.47 24.65 184.772 24.7515 185.064 24.8777C185.355 25.0101 185.635 25.1648 185.903 25.3405V26.5497H177.512V25.3398C178.039 25.061 178.736 24.8054 179.602 24.5731V12.8637L177.512 12.6072V11.3994C177.86 11.2467 178.22 11.1243 178.589 11.0334C179.032 10.9168 179.512 10.8053 180.03 10.6989C180.547 10.5925 181.075 10.5023 181.613 10.4285C182.151 10.3546 182.642 10.2963 183.086 10.2535H184.162V13.5293H184.194C184.637 12.6381 185.302 11.8689 186.189 11.2216C187.076 10.5744 188.152 10.2507 189.419 10.2507C190.17 10.2403 190.918 10.3425 191.638 10.5539C192.281 10.7478 192.857 11.1178 193.303 11.6224C193.757 12.1335 194.105 12.8193 194.348 13.6799C194.59 14.5404 194.712 15.6301 194.712 16.9488V24.5745C195.556 24.7236 196.253 24.9792 196.802 25.3412L196.8 26.5497Z" fill="#00004C"/>
  <path d="M0.000482559 21.332H10.6133L10.6133 10.6654L0.000482559 10.6654L0.000482559 21.332Z" fill="#00004C"/>
  <path d="M0.000482559 32H10.6133L10.6133 21.3333H0.000482559L0.000482559 32Z" fill="#0F0F7B"/>
  <path d="M0.000482559 10.668L10.6133 10.668L10.6133 0.00130177L0.000482559 0.00130177L0.000482559 10.668Z" fill="#0F0F7B"/>
  <path d="M31.8394 10.668H21.2266V21.3346H31.8394V10.668Z" fill="#DADAFF"/>
  <path d="M10.6138 32H21.2266V21.3333H10.6138L10.6138 32Z" fill="#001DC6"/>
  <path d="M10.6138 10.668L21.2266 10.668V0.00130177L10.6138 0.00130177L10.6138 10.668Z" fill="#001DC6"/>
  <path d="M21.227 32H31.8398V21.3333H21.227V32Z" fill="#4E51FF"/>
  <path d="M21.227 10.668L31.8398 10.668V0.00130177L21.227 0.00130177V10.668Z" fill="#4E51FF"/>
  <path d="M10.6138 21.332H21.2266V10.6654L10.6138 10.6654L10.6138 21.332Z" fill="#4E51FF"/>
  </svg>
