<svg width="153" height="24" viewBox="0 0 153 24" fill="none" xmlns="http://www.w3.org/2000/svg">
<g clip-path="url(#clip0)">
<path d="M-0.00012207 16H8.06641V8H-0.00012207V16Z" fill="white"/>
<path d="M-0.00012207 23.9996H8.06641V15.9996H-0.00012207V23.9996Z" fill="#DADAFF"/>
<path d="M-0.00012207 8.00006H8.06641V6.10352e-05H-0.00012207V8.00006Z" fill="#DADAFF"/>
<path d="M24.1998 8.00006H16.1333V16.0001H24.1998V8.00006Z" fill="#0002B5"/>
<path d="M8.06676 23.9996H16.1333V15.9996H8.06676V23.9996Z" fill="#A9B4FF"/>
<path d="M8.06676 8.00006H16.1333V6.10352e-05H8.06676V8.00006Z" fill="#A9B4FF"/>
<path d="M16.1327 23.9996H24.1992V15.9996H16.1327V23.9996Z" fill="#4E51FF"/>
<path d="M16.1327 8.00006H24.1992V6.10352e-05H16.1327V8.00006Z" fill="#4E51FF"/>
<path d="M8.06676 16H16.1333V8H8.06676V16Z" fill="#4E51FF"/>
<path d="M46.309 15.2491H47.3226C47.3881 15.5075 47.4499 15.8183 47.5079 16.1814C47.5659 16.5446 47.6153 16.932 47.6561 17.3435C47.6969 17.7551 47.7257 18.1626 47.7425 18.5661C47.7593 18.9696 47.7676 19.3328 47.7672 19.6556C47.1898 20.0107 46.4688 20.261 45.604 20.4065C44.726 20.5527 43.8369 20.6256 42.9463 20.6242C41.5779 20.6242 40.3376 20.4587 39.2255 20.1278C38.1134 19.7969 37.1648 19.2723 36.3799 18.554C35.5967 17.8361 34.9909 16.9246 34.5624 15.8197C34.134 14.7147 33.9205 13.3853 33.9219 11.8312C33.9219 10.2979 34.1567 8.97826 34.6263 7.87226C35.0959 6.76626 35.7264 5.85815 36.5178 5.14793C37.31 4.4372 38.2508 3.90424 39.2749 3.58621C40.3423 3.2531 41.4566 3.08647 42.5769 3.09244C43.5662 3.08468 44.5543 3.16158 45.5299 3.32224C46.4115 3.47578 47.1326 3.68156 47.6931 3.93957C47.6931 4.19793 47.6808 4.52885 47.6561 4.93234C47.6314 5.33583 47.5902 5.76 47.5326 6.20485C47.4746 6.649 47.4087 7.08491 47.335 7.51259C47.2613 7.94027 47.1913 8.29941 47.1251 8.59002H46.0867L44.7245 4.93234C44.5763 4.85171 44.3374 4.78721 44.0078 4.73883C43.6722 4.69001 43.3333 4.66574 42.9941 4.66626C42.3373 4.66223 41.6876 4.79861 41.0902 5.06589C40.4967 5.33231 39.9693 5.75613 39.5079 6.33735C39.0465 6.91857 38.6839 7.66526 38.4201 8.5774C38.1563 9.48884 38.0244 10.5826 38.0244 11.8586C38.0244 14.1673 38.4942 15.9431 39.4338 17.1858C40.3734 18.4285 41.6509 19.05 43.2663 19.0504C43.6606 19.0569 44.0544 19.0204 44.4405 18.9415C44.7627 18.869 44.981 18.768 45.0955 18.6387L46.309 15.2491Z" fill="white"/>
<path d="M48.5585 14.2795C48.5585 13.2952 48.711 12.4114 49.0159 11.6283C49.297 10.8744 49.7455 10.1911 50.3292 9.62785C50.9129 9.06457 51.6172 8.63536 52.391 8.37128C53.1985 8.08067 54.1132 7.93536 55.1351 7.93536C56.2888 7.93536 57.2819 8.09311 58.1145 8.40861C58.9471 8.72411 59.6311 9.16003 60.1666 9.71635C60.7112 10.2885 61.1133 10.9764 61.3413 11.7261C61.5953 12.5545 61.7204 13.4157 61.7123 14.2806C61.7123 15.2653 61.564 16.149 61.2672 16.9318C60.991 17.6838 60.5475 18.3663 59.969 18.93C59.3783 19.4924 58.6696 19.9222 57.8922 20.1893C57.0764 20.48 56.1574 20.6253 55.1351 20.6253C54.0141 20.6253 53.0415 20.4675 52.2176 20.152C51.3936 19.8365 50.7095 19.4006 50.1655 18.8443C49.6123 18.2723 49.1982 17.5853 48.9542 16.8345C48.6836 16.0091 48.55 15.1464 48.5585 14.2795ZM52.391 14.2795C52.3868 14.9479 52.4322 15.6157 52.5268 16.2777C52.6174 16.8831 52.7784 17.3956 53.01 17.8152C53.2261 18.2199 53.551 18.559 53.9496 18.7959C54.3452 19.0301 54.8561 19.1471 55.4825 19.1471C55.8296 19.1511 56.1713 19.0631 56.4715 18.8926C56.7683 18.723 57.0238 18.4485 57.2382 18.0692C57.4526 17.6899 57.6137 17.1895 57.7215 16.5679C57.8288 15.9468 57.8825 15.184 57.8825 14.2795C57.8873 13.6073 57.8419 12.9356 57.7467 12.2698C57.6558 11.6739 57.4992 11.1655 57.2769 10.7449C57.0718 10.3443 56.76 10.0054 56.3743 9.76421C55.9949 9.53039 55.5169 9.4133 54.9402 9.41295C54.5107 9.41295 54.1399 9.49778 53.8278 9.66745C53.5156 9.83712 53.2518 10.1116 53.0363 10.4909C52.8216 10.8702 52.6605 11.3706 52.5531 11.9922C52.4457 12.6137 52.3917 13.3761 52.391 14.2795Z" fill="white"/>
<path d="M68.7836 20.3329H61.9595V19.4127C62.2057 19.2834 62.4621 19.1735 62.7262 19.0841C62.9896 18.9947 63.2781 18.9095 63.5917 18.8285V9.92199L61.9595 9.72795V8.80774C62.2625 8.69317 62.5721 8.59607 62.8867 8.51696C63.2575 8.4202 63.6489 8.33538 64.0609 8.26247C64.4729 8.18955 64.8767 8.12505 65.2722 8.06896C65.6677 8.01252 66.0139 7.96816 66.3106 7.93591H67.1514V18.8312C67.481 18.9121 67.7778 18.997 68.0416 19.0857C68.2986 19.172 68.5468 19.2817 68.7831 19.4132L68.7836 20.3329ZM63.2201 4.25458C63.2201 3.68983 63.4156 3.24586 63.8064 2.92265C64.1973 2.59943 64.7024 2.438 65.3216 2.43836C65.9405 2.43836 66.4455 2.59979 66.8368 2.92265C67.228 3.24551 67.4234 3.68948 67.4231 4.25458C67.4231 4.80355 67.2276 5.23946 66.8368 5.56232C66.4459 5.88518 65.941 6.04679 65.3221 6.04714C64.7029 6.04714 64.1979 5.88571 63.807 5.56285C63.4161 5.23999 63.2205 4.8039 63.2201 4.25458Z" fill="white"/>
<path d="M84.7305 20.3328H78.1801V19.4126C78.3949 19.2994 78.605 19.1983 78.8105 19.1092C79.0159 19.0202 79.2592 18.9271 79.5401 18.83V13.1253C79.5401 12.1059 79.3918 11.3089 79.095 10.7343C78.7983 10.1598 78.2709 9.87249 77.5128 9.87249C76.9154 9.86177 76.3363 10.0744 75.8934 10.4672C75.4399 10.8637 75.0979 11.4018 74.8674 12.0815V18.83C75.1084 18.8877 75.344 18.9649 75.5718 19.0609C75.799 19.1616 76.018 19.2792 76.2269 19.4126V20.3328H69.6766V19.4126C70.0885 19.2023 70.6324 19.0076 71.3082 18.8284V9.92192L69.6733 9.72788V8.80768C69.945 8.69149 70.2263 8.59826 70.5141 8.52899C70.8603 8.4403 71.2361 8.35547 71.6416 8.27449C72.0472 8.19351 72.4588 8.12498 72.8765 8.06889C73.2968 8.01245 73.6799 7.9681 74.0261 7.93585H74.8669V10.4299H74.8916C75.2377 9.7519 75.7567 9.16665 76.4486 8.67412C77.1405 8.18159 77.9817 7.9362 78.9721 7.93796C79.5574 7.93026 80.1406 8.00807 80.7025 8.1688C81.2039 8.3164 81.6534 8.59769 82.0008 8.9812C82.3552 9.36927 82.6272 9.89107 82.8169 10.5466C83.0066 11.2021 83.1015 12.031 83.1015 13.0333V18.8332C83.7604 18.9468 84.3043 19.1408 84.7331 19.4153L84.7305 20.3328Z" fill="white"/>
<path d="M100.257 20.3329H93.7072V19.4127C93.9051 19.2995 94.1111 19.1943 94.3251 19.0972C94.5654 18.9907 94.8132 18.9014 95.0666 18.8301V13.9262C95.0666 12.5345 94.9306 11.5109 94.6586 10.8553C94.3865 10.1998 93.855 9.87203 93.0639 9.87203C92.7522 9.8664 92.4425 9.92268 92.1536 10.0374C91.8647 10.1522 91.6025 10.3231 91.3829 10.5398C90.9318 10.9685 90.5926 11.4971 90.3939 12.081V18.8301C90.6334 18.8876 90.8687 18.9607 91.0983 19.0488C91.3306 19.1443 91.5505 19.2664 91.7533 19.4127V20.3329H85.2031V19.4127C85.7197 19.1517 86.2679 18.9558 86.8347 18.8296V4.10997L84.9556 3.91541V2.99731C85.2657 2.88029 85.5831 2.78264 85.9059 2.70495C86.2928 2.60819 86.7007 2.52336 87.1295 2.45044C87.5583 2.37753 87.9869 2.31303 88.4154 2.25694C88.8449 2.2005 89.224 2.15615 89.5526 2.1239H90.3934V10.6713H90.4181C90.5885 10.2915 90.8132 9.93745 91.0854 9.61963C91.3636 9.29059 91.6835 8.99762 92.0374 8.7478C92.3899 8.49694 92.7767 8.29586 93.1863 8.15046C93.607 8.00377 94.0505 7.9301 94.4969 7.93276C95.0946 7.92461 95.6903 8.00239 96.265 8.1636C96.7682 8.30714 97.2188 8.5891 97.5632 8.97601C97.9093 9.36407 98.1731 9.88588 98.3546 10.5414C98.5361 11.1969 98.6268 12.0258 98.6268 13.0281V18.828C98.9067 18.8928 99.187 18.9656 99.4676 19.0462C99.7487 19.1276 100.016 19.2503 100.259 19.4101L100.257 20.3329Z" fill="white"/>
<path d="M111.383 16.8219C111.383 17.177 111.387 17.4837 111.396 17.7421C111.404 18.0005 111.424 18.2749 111.457 18.5655L113.163 18.808V19.6556C112.904 19.775 112.634 19.8723 112.358 19.9464C112.02 20.0431 111.665 20.136 111.295 20.2251C110.924 20.3141 110.557 20.3867 110.194 20.4428C109.832 20.4992 109.51 20.5435 109.228 20.5758H108.392C108.231 20.2229 108.131 19.8467 108.095 19.4621C108.061 19.0909 108.037 18.6388 108.021 18.106H107.897C107.811 18.4374 107.669 18.7525 107.477 19.0383C107.273 19.3438 107.019 19.6139 106.725 19.8375C106.4 20.0821 106.038 20.2742 105.651 20.4065C105.206 20.557 104.737 20.6307 104.266 20.6242C103.753 20.6291 103.243 20.5473 102.758 20.3823C102.315 20.2314 101.905 20.0016 101.547 19.7045C101.201 19.415 100.923 19.0564 100.731 18.6528C100.528 18.2161 100.426 17.7404 100.434 17.2604C100.434 16.5341 100.574 15.9367 100.854 15.4684C101.135 15.0001 101.575 14.6159 102.174 14.3158C102.775 14.0171 103.55 13.7952 104.498 13.6501C105.447 13.5049 106.596 13.3998 107.948 13.3346C108.079 11.9464 108.022 10.9298 107.775 10.2848C107.528 9.63974 106.992 9.31688 106.168 9.31617C105.687 9.31098 105.209 9.39299 104.758 9.55806L103.595 12.4622H102.507C102.364 12.2492 102.236 12.0268 102.124 11.7965C102 11.5466 101.885 11.2802 101.777 10.9973C101.67 10.7159 101.579 10.4288 101.505 10.1375C101.433 9.85865 101.379 9.57552 101.344 9.28988C101.97 8.86922 102.778 8.53829 103.767 8.29711C104.795 8.05041 105.849 7.92838 106.907 7.93376C107.847 7.93376 108.613 8.03472 109.207 8.23664C109.8 8.43856 110.265 8.71305 110.603 9.0601C110.938 9.40359 111.18 9.8239 111.307 10.2827C111.442 10.7721 111.508 11.2771 111.505 11.7839C111.505 12.7525 111.484 13.6289 111.443 14.4131C111.402 15.1972 111.382 16.0002 111.383 16.8219ZM105.82 18.6865C106.129 18.6951 106.435 18.6286 106.71 18.493C106.944 18.3737 107.157 18.2184 107.341 18.0329C107.508 17.8644 107.642 17.6675 107.737 17.4518C107.817 17.27 107.887 17.0841 107.946 16.895V14.4762C107.172 14.4923 106.537 14.5407 106.043 14.6213C105.548 14.7019 105.161 14.8351 104.881 15.0209C104.616 15.1881 104.412 15.4339 104.3 15.7224C104.192 16.0049 104.139 16.3479 104.139 16.7514C104.139 17.3653 104.287 17.8415 104.584 18.1801C104.881 18.5187 105.293 18.6875 105.82 18.6865Z" fill="white"/>
<path d="M117.762 20.6232L112.817 9.72793C112.362 9.57663 111.923 9.38165 111.506 9.14583V8.22562H118.009V9.11954C117.794 9.23312 117.576 9.34249 117.354 9.44766C117.111 9.56042 116.86 9.65379 116.602 9.72687L118.902 15.9438L119.372 17.5707H119.421L119.817 15.9191L121.915 9.72793C121.666 9.6682 121.422 9.58708 121.186 9.48552C120.967 9.38976 120.756 9.27595 120.556 9.1453V8.2251H125.328V9.1453C125.138 9.27171 124.935 9.3775 124.722 9.4608C124.46 9.56572 124.191 9.65475 123.917 9.7274L119.591 20.3319L117.762 20.6232Z" fill="white"/>
<path d="M135.81 18.2989C135.651 18.6107 135.437 18.8933 135.18 19.1344C134.866 19.4353 134.508 19.6884 134.117 19.8853C133.654 20.119 133.164 20.2978 132.658 20.418C132.072 20.559 131.469 20.628 130.865 20.6236C129.843 20.6236 128.937 20.4742 128.146 20.1756C127.355 19.8769 126.696 19.449 126.168 18.892C125.629 18.3161 125.221 17.6352 124.969 16.8938C124.697 16.1191 124.561 15.2475 124.561 14.2789C124.561 12.2127 125.113 10.6387 126.217 9.55692C127.322 8.4751 128.855 7.93437 130.816 7.93472C131.617 7.92885 132.413 8.04323 133.178 8.27389C133.878 8.47965 134.51 8.86402 135.008 9.3876C135.494 9.90431 135.832 10.5823 136.022 11.4215C136.212 12.2607 136.199 13.2858 135.985 14.4966H128.393C128.409 15.7719 128.743 16.7885 129.394 17.5464C130.046 18.3043 131.006 18.6836 132.275 18.6843C132.848 18.6803 133.418 18.5989 133.968 18.4424C134.553 18.2812 135.011 18.0708 135.341 17.8114L135.81 18.2989ZM130.703 9.31556C130.403 9.31016 130.106 9.3679 129.831 9.48488C129.577 9.59811 129.355 9.80388 129.167 10.1022C128.979 10.4005 128.828 10.8037 128.713 11.3116C128.598 11.8203 128.516 12.462 128.467 13.2367H132.423C132.538 11.9775 132.465 11.0089 132.202 10.3309C131.94 9.65297 131.44 9.31433 130.703 9.31503V9.31556Z" fill="white"/>
<path d="M152.195 20.3328H145.645V19.4126C145.859 19.2994 146.069 19.1983 146.275 19.1092C146.48 19.0202 146.724 18.9271 147.005 18.83V13.1253C147.005 12.1059 146.856 11.3089 146.559 10.7343C146.263 10.1598 145.735 9.87249 144.977 9.87249C144.379 9.86097 143.798 10.0737 143.355 10.4672C142.901 10.8637 142.559 11.4018 142.329 12.0815V18.83C142.57 18.8877 142.805 18.9649 143.033 19.0609C143.26 19.1616 143.479 19.2792 143.688 19.4126V20.3328H137.138V19.4126C137.55 19.2023 138.094 19.0076 138.769 18.8284V9.92192L137.137 9.72788V8.80768C137.409 8.69149 137.69 8.59826 137.978 8.52899C138.324 8.4403 138.7 8.35547 139.106 8.27449C139.511 8.19351 139.923 8.12498 140.34 8.06889C140.761 8.01245 141.144 7.9681 141.49 7.93585H142.331V10.4299H142.355C142.702 9.7519 143.221 9.16665 143.912 8.67412C144.604 8.18159 145.446 7.9362 146.436 7.93796C147.021 7.93026 147.604 8.00807 148.166 8.1688C148.668 8.3164 149.117 8.59769 149.465 8.9812C149.819 9.36927 150.091 9.89107 150.281 10.5466C150.47 11.2021 150.565 12.031 150.565 13.0333V18.8332C151.224 18.9468 151.768 19.1408 152.197 19.4153L152.195 20.3328Z" fill="white"/>
</g>
<defs>
<clipPath id="clip0">
<rect width="153" height="24" fill="white"/>
</clipPath>
</defs>
</svg>
