<svg width="61" height="56" viewBox="0 0 61 56" fill="none" xmlns="http://www.w3.org/2000/svg">
  <path d="M28.2639 1.01323C29.4444 0.380352 30.8633 0.380351 32.0438 1.01323L54.1578 12.8688C55.457 13.5653 56.2678 14.92 56.2678 16.3941V39.6059C56.2678 41.08 55.457 42.4347 54.1578 43.1312L32.0438 54.9868C30.8633 55.6196 29.4444 55.6196 28.2639 54.9868L6.14988 43.1312C4.85066 42.4347 4.03985 41.08 4.03985 39.6059V16.3941C4.03985 14.92 4.85066 13.5653 6.14988 12.8688L28.2639 1.01323Z" fill="url(#paint0_linear)"/>
  <path d="M30.0001 36H28.0001V24L22.5001 29.5L21.0801 28.08L29.0001 20.16L36.9201 28.08L35.5001 29.5L30.0001 24V36Z" fill="white"/>
  <defs>
  <linearGradient id="paint0_linear" x1="33.6718" y1="-1.50296e-06" x2="-5.00327" y2="12.4194" gradientUnits="userSpaceOnUse">
  <stop stop-color="#0E0F25"/>
  <stop offset="1" stop-color="#23244B"/>
  </linearGradient>
  </defs>
  </svg>
