<svg width="963" height="367" viewBox="0 0 963 367" fill="none" xmlns="http://www.w3.org/2000/svg">
    <path fill-rule="evenodd" clip-rule="evenodd" d="M486.784 224.275C471.495 236.976 455.269 250.456 431.592 250.456V244.456C452.949 244.456 467.64 232.378 483.238 219.42L483.527 219.181C498.816 206.48 515.042 193 538.719 193C559.881 193 575.421 206.074 590.194 218.503C590.562 218.813 590.93 219.122 591.298 219.431C606.711 232.387 621.583 244.456 642.202 244.456V250.456C619.096 250.456 602.631 236.796 587.437 224.024L587.023 223.677C571.683 210.781 557.669 199 538.719 199C517.362 199 502.671 211.078 487.072 224.036L486.784 224.275ZM699.581 224.275C684.292 236.976 668.066 250.456 644.389 250.456V244.456C665.746 244.456 680.437 232.378 696.035 219.42L696.324 219.181C711.613 206.48 727.839 193 751.516 193C772.678 193 788.218 206.074 802.991 218.503C803.359 218.813 803.727 219.122 804.095 219.431C819.508 232.387 834.38 244.456 854.999 244.456V250.456C831.893 250.456 815.429 236.796 800.234 224.024L799.82 223.677C784.48 210.781 770.466 199 751.516 199C730.159 199 715.468 211.078 699.869 224.036L699.581 224.275ZM855 250.456C878.677 250.456 894.903 236.976 910.192 224.275L910.48 224.036C926.079 211.078 940.77 199 962.127 199V193C938.45 193 922.224 206.48 906.935 219.181L906.646 219.42C891.048 232.378 876.357 244.456 855 244.456V250.456Z" fill="#C4C4C4"/>
    <path fill-rule="evenodd" clip-rule="evenodd" d="M6 250.456C29.6768 250.456 45.9031 236.976 61.192 224.275L61.4804 224.036C77.0791 211.078 91.77 199 113.127 199C132.077 199 146.091 210.781 161.431 223.677L161.845 224.024C177.04 236.796 193.504 250.456 216.61 250.456V244.456C195.991 244.456 181.119 232.387 165.706 219.431C165.338 219.122 164.97 218.813 164.602 218.503C149.829 206.074 134.289 193 113.127 193C89.4501 193 73.2238 206.48 57.935 219.181L57.6466 219.42C42.0479 232.378 27.357 244.456 6 244.456V250.456ZM218.796 250.456C242.473 250.456 258.699 236.976 273.988 224.275L274.276 224.036C289.875 211.078 304.566 199 325.923 199C344.873 199 358.887 210.781 374.227 223.677L374.641 224.024C389.836 236.796 406.3 250.456 429.406 250.456V244.456C408.787 244.456 393.915 232.387 378.502 219.431C378.145 219.131 377.788 218.831 377.43 218.53L377.398 218.503C362.625 206.074 347.085 193 325.923 193C302.246 193 286.02 206.48 270.731 219.181L270.443 219.42C254.844 232.378 240.153 244.456 218.796 244.456V250.456Z" fill="url(#paint0_linear)"/>
    <line x1="6.5" y1="239" x2="6.49999" y2="9" stroke="#00004C" stroke-dasharray="2 2"/>
    <line x1="430.5" y1="239" x2="430.5" y2="9" stroke="#00004C" stroke-dasharray="2 2"/>
    <line x1="854.5" y1="241" x2="854.5" y2="11" stroke="#00004C" stroke-dasharray="2 2"/>
    <line x1="218.5" y1="357" x2="218.5" y2="257" stroke="#00004C" stroke-dasharray="2 2"/>
    <line x1="642.5" y1="357" x2="642.5" y2="257" stroke="#00004C" stroke-dasharray="2 2"/>
    <circle cx="6.5" cy="247.5" r="6.5" fill="#00004C"/>
    <circle cx="6.5" cy="247.5" r="1.5" fill="white"/>
    <circle cx="6.5" cy="3.5" r="3.5" fill="#AAD7DE"/>
    <circle cx="430.5" cy="3.5" r="3.5" fill="#79ABF9"/>
    <circle cx="854.5" cy="3.5" r="3.5" fill="#C4C4C4"/>
    <circle cx="218.5" cy="363.5" r="3.5" fill="#96D4EC"/>
    <circle cx="642.5" cy="362.5" r="3.5" fill="#C4C4C4"/>
    <circle cx="218.5" cy="247.5" r="6.5" fill="#00004C"/>
    <circle cx="218.5" cy="247.5" r="1.5" fill="white"/>
    <circle cx="430.5" cy="247.5" r="6.5" fill="#00004C"/>
    <circle cx="430.5" cy="247.5" r="1.5" fill="white"/>
    <circle cx="642.5" cy="247.5" r="6.5" fill="#00004C"/>
    <circle cx="642.5" cy="247.5" r="1.5" fill="white"/>
    <circle cx="854.5" cy="247.5" r="6.5" fill="#00004C"/>
    <circle cx="854.5" cy="247.5" r="1.5" fill="white"/>
    <defs>
    <linearGradient id="paint0_linear" x1="-110.822" y1="299.124" x2="449.894" y2="284.841" gradientUnits="userSpaceOnUse">
    <stop stop-color="#92F6FC" stop-opacity="0.3048"/>
    <stop offset="0.534239" stop-color="#84DFFC" stop-opacity="0.6855"/>
    <stop offset="0.9926" stop-color="#74A2FC"/>
    </linearGradient>
    </defs>
    </svg>
    