<svg width="591" height="968" viewBox="0 0 591 968" fill="none" xmlns="http://www.w3.org/2000/svg">
  <path opacity="0.1" d="M138.5 56.7014L160.174 45.1098C146.631 52.3449 130.37 52.3449 116.826 45.1098L138.5 56.7014ZM138.5 56.7014L540.998 271.961M138.5 56.7014L-263.998 271.961M540.998 271.961V696.039M540.998 271.961L565.305 284.96C550.34 276.957 540.998 261.366 540.998 244.397V271.961ZM-263.998 271.961V244.397C-263.998 261.355 -273.328 276.936 -288.275 284.944M-263.998 271.961L-288.275 284.944M-263.998 271.961V696.039M-288.275 284.944L-288.305 284.96L-309.998 244.397L-288.305 284.96C-288.295 284.955 -288.285 284.95 -288.275 284.944ZM-263.998 696.039L-288.305 683.04C-273.34 691.043 -263.998 706.634 -263.998 723.603V696.039ZM-263.998 696.039L138.5 911.299M138.5 911.299L116.806 922.901C130.361 915.651 146.639 915.652 160.192 922.9M138.5 911.299L160.192 922.9M138.5 911.299L540.998 696.039M160.192 922.9L138.5 963.464L160.194 922.901L160.192 922.9ZM540.998 696.039V723.603C540.998 706.634 550.341 691.043 565.304 683.04M540.998 696.039L565.304 683.04M565.304 683.04L586.998 723.603L565.305 683.04L565.304 683.04ZM-311.885 727.13L-311.842 727.051L-311.885 727.13ZM138.5 4.53623L160.193 45.0997L160.194 45.0995L138.5 4.53623Z" stroke="url(#paint0_linear)" stroke-width="100"/>
  <defs>
  <linearGradient id="paint0_linear" x1="-25.5" y1="903" x2="218.5" y2="19" gradientUnits="userSpaceOnUse">
  <stop stop-color="#97E4FC" stop-opacity="0.36"/>
  <stop offset="0.3025" stop-color="#92F6FC" stop-opacity="0.3048"/>
  <stop offset="0.6804" stop-color="#84DFFC" stop-opacity="0.6855"/>
  <stop offset="0.9926" stop-color="#74A2FC"/>
  </linearGradient>
  </defs>
  </svg>
  