<svg width="232" height="150" viewBox="0 0 232 150" fill="none" xmlns="http://www.w3.org/2000/svg">
  <g clip-path="url(#clip0)">
  <path d="M231.285 148.304H0V150H231.285V148.304Z" fill="#85848B"/>
  <path d="M138.264 62.2423V59.4969C138.264 57.4759 137.463 55.5379 136.038 54.109C134.613 52.6801 132.681 51.8774 130.666 51.8774H22.5824C20.5676 51.8774 18.6354 52.6801 17.2106 54.109C15.7857 55.5379 14.985 57.4759 14.9844 59.4969V64.5589L138.264 62.2423Z" fill="#00004C"/>
  <path opacity="0.1" d="M122.047 88.9512C126.602 88.3821 129.308 79.9757 128.091 70.1751C126.875 60.3745 122.195 52.891 117.64 53.4601C113.084 54.0293 110.378 62.4357 111.595 72.2363C112.812 82.0369 117.491 89.5204 122.047 88.9512Z" fill="black"/>
  <path opacity="0.1" d="M141.182 64.9368V141.198C141.182 142.064 141.012 142.922 140.682 143.722C140.351 144.522 139.867 145.249 139.256 145.861C138.646 146.473 137.921 146.959 137.123 147.29C136.325 147.622 135.47 147.792 134.607 147.792H21.5623C19.8194 147.791 18.148 147.096 16.9157 145.86C15.6835 144.623 14.9912 142.946 14.9912 141.198V57.2488C18.2305 58.4557 18.2305 58.4557 21.5623 58.354H134.607C136.348 58.354 138.019 59.0471 139.252 60.2813C140.484 61.5154 141.179 63.1897 141.182 64.9368Z" fill="black"/>
  <path d="M141.182 65.9073V142.168C141.182 143.917 140.489 145.594 139.256 146.831C138.022 148.067 136.35 148.762 134.607 148.762H21.5623C19.8194 148.762 18.148 148.067 16.9157 146.83C15.6835 145.594 14.9912 143.917 14.9912 142.168V58.217C18.2305 59.4217 18.2305 59.4217 21.5623 59.3223H134.607C136.349 59.3223 138.02 60.0157 139.252 61.2503C140.485 62.4849 141.179 64.1598 141.182 65.9073Z" fill="url(#paint0_linear)"/>
  <path opacity="0.1" d="M140.86 94.1018V118.49H117.282C114.086 118.447 111.036 117.143 108.791 114.861C106.547 112.579 105.288 109.502 105.288 106.296C105.288 103.09 106.547 100.013 108.791 97.7308C111.036 95.4487 114.086 94.145 117.282 94.1018H140.86Z" fill="black"/>
  <path d="M141.182 93.4519V117.844H117.604C114.408 117.801 111.358 116.498 109.113 114.215C106.869 111.933 105.61 108.856 105.61 105.65C105.61 102.444 106.869 99.3675 109.113 97.0853C111.358 94.8032 114.408 93.4995 117.604 93.4563L141.182 93.4519Z" fill="#00004C"/>
  <path opacity="0.1" d="M118.734 111.052C121.352 111.052 123.474 108.923 123.474 106.297C123.474 103.671 121.352 101.542 118.734 101.542C116.116 101.542 113.994 103.671 113.994 106.297C113.994 108.923 116.116 111.052 118.734 111.052Z" fill="black"/>
  <path d="M119.056 110.406C121.674 110.406 123.796 108.277 123.796 105.651C123.796 103.025 121.674 100.897 119.056 100.897C116.439 100.897 114.316 103.025 114.316 105.651C114.316 108.277 116.439 110.406 119.056 110.406Z" fill="white"/>
  <g opacity="0.1">
  <path opacity="0.1" d="M167.65 25.2636C167.456 25.4749 167.214 25.6357 166.945 25.7322C165.499 26.3357 163.873 26.2671 162.317 26.1743C162.15 26.176 161.985 26.1389 161.835 26.066C161.597 25.9267 161.506 25.6349 161.433 25.3697C161.129 24.2645 160.85 23.2498 160.127 22.3281C159.987 22.1155 159.781 21.9559 159.541 21.8749C159.314 21.8535 159.085 21.8752 158.866 21.939C158.757 21.9707 158.641 21.9736 158.53 21.9472C158.42 21.9209 158.317 21.8663 158.234 21.7887C158.144 21.655 158.103 21.4939 158.119 21.3334C158.119 20.8692 158.223 20.3497 157.934 19.9894C157.773 19.7883 157.518 19.6799 157.352 19.481C157.245 19.3343 157.178 19.1611 157.161 18.9797C157.144 18.7983 157.175 18.6156 157.253 18.4509C156.978 18.893 156.861 19.4478 157.181 19.828C157.346 20.0248 157.601 20.1331 157.762 20.3342C158.051 20.6968 157.954 21.2184 157.947 21.6782C157.93 21.8385 157.97 21.9997 158.06 22.1336C158.143 22.2119 158.246 22.2671 158.357 22.2939C158.468 22.3206 158.585 22.3179 158.694 22.2861C158.913 22.2201 159.142 22.1983 159.369 22.222C159.608 22.2999 159.814 22.4555 159.955 22.6641C160.675 23.5858 160.958 24.5982 161.262 25.7079C161.297 25.9809 161.433 26.2308 161.643 26.4086C161.794 26.4816 161.96 26.518 162.128 26.5147C163.69 26.612 165.318 26.6827 166.755 26.0726C167.025 25.9768 167.267 25.8158 167.46 25.604C167.557 25.4795 167.632 25.3388 167.681 25.1884C167.683 25.2172 167.667 25.2415 167.65 25.2636Z" fill="black"/>
  <path opacity="0.1" d="M157.677 17.7678C157.746 17.6924 157.799 17.6037 157.833 17.507C157.853 17.3951 157.853 17.2806 157.833 17.1688C157.79 16.5386 157.872 15.906 158.073 15.3076L158.045 15.2744C157.743 15.9807 157.617 16.7498 157.677 17.5158C157.683 17.5997 157.683 17.684 157.677 17.7678Z" fill="black"/>
  </g>
  <g opacity="0.6">
  <path d="M82.0193 104.733C83.2729 103.031 84.0166 100.926 84.0166 98.6529C84.0166 93.3394 79.9644 88.9575 74.7889 88.4323V84.637H68.0608V88.3786H65.7338V84.637H59.0057V88.3786H53.6309V95.1681H56.6518V115.985H53.6309V122.774H59.0057V126.167H65.7338V122.774H68.0608V126.167H74.7889V122.774H75.3103C80.9765 122.774 85.5846 118.166 85.5846 112.5C85.5846 109.403 84.2006 106.619 82.0193 104.733ZM73.7462 95.1719C75.6669 95.1719 77.2272 96.7322 77.2272 98.6529C77.2272 100.574 75.6669 102.134 73.7462 102.134H63.3837V95.1681H73.7462V95.1719ZM75.3142 115.989H63.3837V109.023H75.3142C77.2348 109.023 78.7951 110.583 78.7951 112.504C78.7951 114.429 77.231 115.989 75.3142 115.989Z" fill="white"/>
  </g>
  <path d="M167.091 137.35L166.152 141.093C167.217 141.357 170.497 142.433 171.029 140.315C171.583 138.106 168.156 137.613 167.091 137.35Z" fill="#001DC6"/>
  <path d="M165.679 142.982L164.644 147.11C165.921 147.426 169.863 148.684 170.446 146.356C171.055 143.928 166.957 143.299 165.679 142.982Z" fill="#001DC6"/>
  <path d="M171.334 126.206C168.038 125.388 164.572 125.561 161.374 126.703C158.176 127.845 155.391 129.904 153.37 132.62C151.349 135.337 150.183 138.588 150.02 141.963C149.857 145.338 150.704 148.686 152.453 151.582C154.203 154.478 156.777 156.794 159.85 158.235C162.923 159.677 166.357 160.18 169.717 159.68C173.077 159.181 176.213 157.702 178.728 155.43C181.243 153.158 183.024 150.196 183.846 146.917C184.393 144.74 184.502 142.477 184.169 140.258C183.836 138.039 183.066 135.907 181.905 133.984C180.743 132.06 179.211 130.383 177.397 129.049C175.584 127.714 173.524 126.748 171.334 126.206ZM174.753 140.349C174.506 142.013 173.578 142.82 172.346 143.102C174.037 143.977 174.898 145.32 174.078 147.649C173.061 150.54 170.643 150.784 167.429 150.179L166.649 153.289L164.763 152.822L165.533 149.754C165.031 149.63 164.53 149.501 164.031 149.366L163.258 152.449L161.375 151.981L162.155 148.866C161.715 148.754 161.268 148.635 160.811 148.521L158.358 147.912L159.294 145.766C159.294 145.766 160.683 146.134 160.664 146.107C160.75 146.134 160.841 146.145 160.931 146.137C161.021 146.13 161.109 146.104 161.189 146.063C161.27 146.021 161.341 145.965 161.399 145.896C161.457 145.827 161.501 145.747 161.528 145.661L162.761 140.746C162.83 140.763 162.898 140.779 162.96 140.795C162.896 140.77 162.831 140.749 162.764 140.733L163.643 137.223C163.67 136.963 163.592 136.704 163.428 136.5C163.264 136.296 163.026 136.164 162.765 136.133C162.795 136.113 161.396 135.795 161.396 135.795L161.898 133.792L164.498 134.438L164.496 134.447C164.886 134.544 165.289 134.635 165.7 134.728L166.472 131.649L168.356 132.116L167.599 135.135C168.105 135.25 168.614 135.366 169.11 135.489L169.862 132.49L171.747 132.957L170.975 136.037C173.355 136.852 175.095 138.075 174.753 140.349Z" fill="#001DC6"/>
  <g opacity="0.2">
  <path d="M196.421 123.104L195.482 126.847C196.547 127.111 199.827 128.188 200.359 126.069C200.913 123.86 197.486 123.368 196.421 123.104Z" fill="#001DC6"/>
  <path d="M195.009 128.737L193.974 132.864C195.252 133.18 199.193 134.439 199.776 132.11C200.385 129.682 196.287 129.054 195.009 128.737Z" fill="#001DC6"/>
  <path d="M200.665 111.96C197.368 111.143 193.902 111.316 190.704 112.458C187.506 113.599 184.721 115.659 182.7 118.375C180.679 121.091 179.513 124.342 179.35 127.717C179.187 131.093 180.034 134.44 181.784 137.336C183.533 140.233 186.107 142.548 189.18 143.99C192.253 145.431 195.687 145.934 199.047 145.435C202.407 144.935 205.543 143.456 208.058 141.185C210.573 138.913 212.354 135.95 213.177 132.671C213.723 130.494 213.832 128.232 213.499 126.013C213.166 123.793 212.397 121.661 211.235 119.738C210.073 117.815 208.541 116.138 206.728 114.803C204.914 113.469 202.854 112.503 200.665 111.96ZM204.084 126.103C203.836 127.768 202.908 128.574 201.676 128.856C203.367 129.731 204.228 131.075 203.408 133.403C202.391 136.295 199.973 136.539 196.759 135.934L195.979 139.043L194.093 138.576L194.863 135.508C194.361 135.384 193.86 135.255 193.361 135.121L192.588 138.203L190.705 137.736L191.485 134.62C191.045 134.508 190.598 134.389 190.142 134.276L187.688 133.667L188.624 131.521C188.624 131.521 190.013 131.889 189.994 131.861C190.081 131.889 190.171 131.899 190.261 131.891C190.352 131.884 190.439 131.859 190.52 131.817C190.6 131.776 190.671 131.719 190.729 131.65C190.787 131.581 190.831 131.501 190.858 131.416L192.091 126.5C192.16 126.517 192.228 126.533 192.29 126.549C192.226 126.524 192.161 126.504 192.094 126.487L192.974 122.978C193 122.718 192.922 122.458 192.758 122.254C192.594 122.05 192.356 121.919 192.095 121.888C192.125 121.868 190.726 121.549 190.726 121.549L191.228 119.546L193.828 120.192L193.826 120.202C194.217 120.298 194.619 120.39 195.03 120.483L195.802 117.404L197.686 117.871L196.929 120.89C197.435 121.005 197.944 121.12 198.44 121.243L199.192 118.244L201.077 118.711L200.305 121.792C202.685 122.607 204.425 123.829 204.084 126.103Z" fill="#001DC6"/>
  </g>
  </g>
  <defs>
  <linearGradient id="paint0_linear" x1="86.0003" y1="32" x2="99.034" y2="174.013" gradientUnits="userSpaceOnUse">
  <stop stop-color="#23244B"/>
  <stop offset="1" stop-color="#4E51FF"/>
  </linearGradient>
  <clipPath id="clip0">
  <rect width="231.285" height="150" fill="white"/>
  </clipPath>
  </defs>
  </svg>
