<svg width="232" height="150" viewBox="0 0 232 150" fill="none" xmlns="http://www.w3.org/2000/svg">
  <g clip-path="url(#clip0)">
  <path d="M231.285 148.305H0V150H231.285V148.305Z" fill="#85848B"/>
  <path d="M138.264 62.2423V59.4969C138.264 57.4759 137.463 55.5379 136.038 54.109C134.613 52.6801 132.681 51.8774 130.666 51.8774H22.5824C20.5676 51.8774 18.6354 52.6801 17.2106 54.109C15.7857 55.5379 14.985 57.4759 14.9844 59.4969V64.5589L138.264 62.2423Z" fill="#00004C"/>
  <path opacity="0.1" d="M122.047 88.9512C126.603 88.3821 129.309 79.9757 128.092 70.1751C126.875 60.3745 122.196 52.891 117.64 53.4601C113.085 54.0293 110.379 62.4357 111.596 72.2363C112.812 82.0369 117.492 89.5204 122.047 88.9512Z" fill="black"/>
  <path opacity="0.1" d="M141.182 64.9368V141.198C141.182 142.064 141.012 142.922 140.681 143.722C140.351 144.522 139.866 145.249 139.256 145.861C138.645 146.474 137.92 146.959 137.122 147.29C136.325 147.622 135.47 147.792 134.606 147.792H21.5618C19.8189 147.791 18.1475 147.096 16.9152 145.86C15.683 144.623 14.9907 142.946 14.9907 141.198V57.2488C18.23 58.4558 18.23 58.4558 21.5618 58.3541H134.606C136.348 58.3541 138.018 59.0472 139.251 60.2813C140.484 61.5154 141.178 63.1898 141.182 64.9368Z" fill="black"/>
  <path d="M141.182 65.9073V142.168C141.181 143.917 140.488 145.594 139.255 146.831C138.022 148.067 136.35 148.762 134.606 148.762H21.5618C19.8189 148.762 18.1475 148.067 16.9152 146.83C15.683 145.594 14.9907 143.917 14.9907 142.168V58.217C18.23 59.4217 18.23 59.4217 21.5618 59.3223H134.606C136.348 59.3223 138.019 60.0157 139.252 61.2503C140.485 62.4849 141.179 64.1598 141.182 65.9073Z" fill="url(#paint0_linear)"/>
  <path opacity="0.1" d="M140.861 94.1017V118.49H117.282C114.086 118.447 111.036 117.143 108.792 114.861C106.547 112.579 105.289 109.502 105.289 106.296C105.289 103.09 106.547 100.013 108.792 97.7308C111.036 95.4486 114.086 94.1449 117.282 94.1017H140.861Z" fill="black"/>
  <path d="M141.182 93.4518V117.844H117.603C114.408 117.801 111.358 116.497 109.113 114.215C106.868 111.933 105.61 108.856 105.61 105.65C105.61 102.444 106.868 99.3674 109.113 97.0853C111.358 94.8032 114.408 93.4994 117.603 93.4563L141.182 93.4518Z" fill="#00004C"/>
  <path opacity="0.1" d="M118.734 111.052C121.352 111.052 123.474 108.923 123.474 106.297C123.474 103.671 121.352 101.542 118.734 101.542C116.116 101.542 113.994 103.671 113.994 106.297C113.994 108.923 116.116 111.052 118.734 111.052Z" fill="black"/>
  <path d="M119.056 110.406C121.674 110.406 123.796 108.277 123.796 105.651C123.796 103.025 121.674 100.897 119.056 100.897C116.438 100.897 114.316 103.025 114.316 105.651C114.316 108.277 116.438 110.406 119.056 110.406Z" fill="white"/>
  <g opacity="0.1">
  <path opacity="0.1" d="M167.65 25.2634C167.456 25.4747 167.214 25.6355 166.945 25.732C165.499 26.3355 163.873 26.2669 162.317 26.1741C162.15 26.1758 161.985 26.1387 161.835 26.0658C161.597 25.9265 161.506 25.6348 161.433 25.3695C161.129 24.2643 160.85 23.2497 160.127 22.3279C159.987 22.1153 159.781 21.9557 159.541 21.8748C159.314 21.8533 159.085 21.875 158.866 21.9389C158.757 21.9706 158.641 21.9734 158.53 21.9471C158.42 21.9207 158.317 21.8661 158.234 21.7885C158.144 21.6548 158.103 21.4937 158.119 21.3332C158.119 20.869 158.223 20.3495 157.934 19.9892C157.773 19.7881 157.518 19.6798 157.352 19.4808C157.245 19.3342 157.178 19.1609 157.161 18.9795C157.144 18.7981 157.175 18.6154 157.253 18.4507C156.978 18.8928 156.861 19.4477 157.181 19.8279C157.346 20.0246 157.601 20.1329 157.762 20.3341C158.051 20.6966 157.954 21.2182 157.947 21.678C157.93 21.8383 157.97 21.9995 158.06 22.1334C158.143 22.2117 158.246 22.2669 158.357 22.2937C158.468 22.3204 158.585 22.3177 158.694 22.2859C158.913 22.2199 159.142 22.1981 159.369 22.2218C159.608 22.2997 159.814 22.4553 159.955 22.6639C160.675 23.5857 160.958 24.598 161.262 25.7077C161.297 25.9808 161.433 26.2306 161.643 26.4084C161.794 26.4814 161.96 26.5178 162.128 26.5145C163.69 26.6118 165.318 26.6825 166.755 26.0724C167.025 25.9766 167.267 25.8157 167.46 25.6038C167.557 25.4793 167.632 25.3386 167.681 25.1882C167.683 25.217 167.667 25.2413 167.65 25.2634Z" fill="black"/>
  <path opacity="0.1" d="M157.677 17.7677C157.746 17.6923 157.799 17.6035 157.833 17.5069C157.853 17.395 157.853 17.2805 157.833 17.1687C157.79 16.5384 157.872 15.9059 158.073 15.3074L158.045 15.2743C157.743 15.9806 157.617 16.7497 157.677 17.5157C157.683 17.5996 157.683 17.6838 157.677 17.7677Z" fill="black"/>
  </g>
  <g opacity="0.6">
  <path d="M82.0197 104.733C83.2734 103.031 84.0171 100.926 84.0171 98.6528C84.0171 93.3393 79.9649 88.9574 74.7894 88.4322V84.6368H68.0613V88.3785H65.7343V84.6368H59.0062V88.3785H53.6313V95.168H56.6523V115.985H53.6313V122.774H59.0062V126.167H65.7343V122.774H68.0613V126.167H74.7894V122.774H75.3108C80.977 122.774 85.5851 118.166 85.5851 112.5C85.5851 109.402 84.2011 106.619 82.0197 104.733ZM73.7467 95.1718C75.6673 95.1718 77.2276 96.7321 77.2276 98.6528C77.2276 100.573 75.6673 102.134 73.7467 102.134H63.3842V95.168H73.7467V95.1718ZM75.3146 115.989H63.3842V109.023H75.3146C77.2353 109.023 78.7956 110.583 78.7956 112.504C78.7956 114.428 77.2315 115.989 75.3146 115.989Z" fill="white"/>
  </g>
  <path d="M167.092 137.35L166.153 141.093C167.217 141.357 170.498 142.433 171.029 140.315C171.583 138.106 168.156 137.613 167.092 137.35Z" fill="#001DC6"/>
  <path d="M165.679 142.982L164.644 147.11C165.921 147.426 169.863 148.684 170.446 146.356C171.055 143.928 166.957 143.299 165.679 142.982Z" fill="#001DC6"/>
  <path d="M171.334 126.206C168.038 125.388 164.572 125.562 161.374 126.703C158.176 127.845 155.391 129.904 153.37 132.621C151.349 135.337 150.183 138.588 150.02 141.963C149.857 145.338 150.704 148.686 152.453 151.582C154.203 154.479 156.777 156.794 159.85 158.235C162.923 159.677 166.357 160.18 169.717 159.681C173.077 159.181 176.213 157.702 178.728 155.43C181.243 153.158 183.024 150.196 183.846 146.917C184.393 144.74 184.502 142.477 184.169 140.258C183.836 138.039 183.066 135.907 181.905 133.984C180.743 132.06 179.211 130.384 177.397 129.049C175.584 127.715 173.524 126.748 171.334 126.206ZM174.753 140.349C174.506 142.014 173.578 142.82 172.346 143.102C174.037 143.977 174.898 145.32 174.078 147.649C173.061 150.54 170.643 150.785 167.429 150.179L166.649 153.289L164.763 152.822L165.533 149.754C165.031 149.63 164.53 149.501 164.031 149.367L163.258 152.449L161.375 151.981L162.155 148.866C161.715 148.754 161.268 148.635 160.811 148.521L158.358 147.912L159.294 145.767C159.294 145.767 160.683 146.134 160.664 146.107C160.75 146.134 160.841 146.145 160.931 146.137C161.021 146.13 161.109 146.104 161.189 146.063C161.27 146.022 161.341 145.965 161.399 145.896C161.457 145.827 161.501 145.747 161.528 145.661L162.761 140.746C162.83 140.763 162.898 140.779 162.96 140.795C162.896 140.77 162.831 140.749 162.764 140.733L163.643 137.223C163.67 136.964 163.592 136.704 163.428 136.5C163.264 136.296 163.026 136.165 162.765 136.133C162.795 136.113 161.396 135.795 161.396 135.795L161.898 133.792L164.498 134.438L164.496 134.447C164.886 134.544 165.289 134.636 165.7 134.729L166.472 131.65L168.356 132.117L167.599 135.135C168.105 135.25 168.614 135.366 169.11 135.489L169.862 132.49L171.747 132.957L170.975 136.037C173.355 136.853 175.095 138.075 174.753 140.349Z" fill="#001DC6"/>
  <g opacity="0.2">
  <path d="M196.421 123.104L195.482 126.847C196.547 127.111 199.827 128.187 200.359 126.069C200.913 123.86 197.486 123.368 196.421 123.104Z" fill="#001DC6"/>
  <path d="M195.009 128.736L193.973 132.864C195.251 133.18 199.193 134.438 199.776 132.11C200.385 129.682 196.287 129.054 195.009 128.736Z" fill="#001DC6"/>
  <path d="M200.664 111.96C197.367 111.143 193.901 111.316 190.703 112.457C187.506 113.599 184.72 115.658 182.699 118.375C180.678 121.091 179.512 124.342 179.349 127.717C179.186 131.092 180.033 134.44 181.783 137.336C183.533 140.233 186.107 142.548 189.18 143.99C192.253 145.431 195.686 145.934 199.047 145.435C202.407 144.935 205.543 143.456 208.058 141.184C210.573 138.913 212.354 135.95 213.176 132.671C213.722 130.494 213.832 128.232 213.499 126.012C213.166 123.793 212.396 121.661 211.234 119.738C210.072 117.815 208.541 116.138 206.727 114.803C204.913 113.469 202.853 112.503 200.664 111.96ZM204.083 126.103C203.835 127.768 202.908 128.574 201.676 128.856C203.367 129.731 204.228 131.075 203.408 133.403C202.39 136.295 199.973 136.539 196.759 135.934L195.978 139.043L194.093 138.576L194.863 135.508C194.36 135.384 193.86 135.255 193.36 135.121L192.588 138.203L190.705 137.735L191.485 134.62C191.045 134.508 190.597 134.389 190.141 134.275L187.688 133.667L188.624 131.521C188.624 131.521 190.013 131.889 189.994 131.861C190.08 131.889 190.171 131.899 190.261 131.891C190.351 131.884 190.439 131.859 190.519 131.817C190.599 131.776 190.671 131.719 190.729 131.65C190.787 131.581 190.831 131.501 190.858 131.416L192.091 126.5C192.16 126.517 192.227 126.533 192.289 126.549C192.226 126.524 192.16 126.503 192.094 126.487L192.973 122.978C192.999 122.718 192.922 122.458 192.758 122.254C192.593 122.05 192.355 121.919 192.095 121.888C192.124 121.868 190.726 121.549 190.726 121.549L191.227 119.546L193.828 120.192L193.825 120.202C194.216 120.298 194.619 120.39 195.029 120.483L195.802 117.404L197.686 117.871L196.929 120.89C197.435 121.004 197.944 121.12 198.44 121.243L199.191 118.244L201.076 118.711L200.304 121.791C202.684 122.607 204.425 123.829 204.083 126.103Z" fill="#001DC6"/>
  </g>
  </g>
  <defs>
  <linearGradient id="paint0_linear" x1="85.9998" y1="32" x2="99.0335" y2="174.013" gradientUnits="userSpaceOnUse">
  <stop stop-color="#23244B"/>
  <stop offset="1" stop-color="#4E51FF"/>
  </linearGradient>
  <clipPath id="clip0">
  <rect width="231.285" height="150" fill="white"/>
  </clipPath>
  </defs>
  </svg>
  