<svg
  width="18"
  height="18"
  viewBox="0 0 18 18"
  fill="none"
  xmlns="http://www.w3.org/2000/svg"
>
<path
    fill-rule="evenodd"
    clip-rule="evenodd"
    d="M1.49126 1.04161C1.10339 1.4309 1.10283 2.06263 1.49001 2.45261L7.77837 8.78664L1.0409 15.549C0.653034 15.9383 0.653034 16.5694 1.0409 16.9587C1.42876 17.348 2.05761 17.348 2.44548 16.9587L9.18045 10.1989L15.5108 16.5753C15.898 16.9652 16.5263 16.9658 16.9142 16.5765C17.302 16.1872 17.3026 15.5555 16.9154 15.1655L10.585 8.78914L16.4913 2.86113C16.8791 2.47183 16.8791 1.84066 16.4913 1.45137C16.1034 1.06207 15.4745 1.06207 15.0867 1.45137L9.18295 7.37688L2.89458 1.04285C2.50741 0.65287 1.87912 0.652312 1.49126 1.04161Z"
    fill="white"
  />
</svg>
