<svg xmlns="http://www.w3.org/2000/svg" width="98" height="98" fill="none" viewBox="0 0 98 98">
    <path fill="url(#paint0_linear)" fill-rule="evenodd" d="M64.75 29.75h-31.5v3.5h31.5v-3.5zM26.25 35H70v3.5H26.25V35zM21 40.25h56V70H21V40.25z" clip-rule="evenodd"/>
    <path fill="#E4E5F9" d="M50.649 61.445v1.725c0 .188-.152.338-.341.338H48.6c-.19 0-.341-.15-.341-.338v-1.688c-1.745-.112-3.149-1.463-3.3-3.151 0-.188.151-.338.341-.338h1.707c.152 0 .303.113.341.263.114.525.607.938 1.138.938h1.517c.873 0 1.707-.638 1.783-1.5.114-1.014-.683-1.877-1.707-1.877h-1.1c-2.124 0-4.02-1.538-4.248-3.639-.227-2.213 1.404-4.126 3.528-4.389v-1.726c0-.187.151-.337.34-.337h1.708c.19 0 .34.15.34.337v1.689c1.746.112 3.149 1.463 3.3 3.15.039.188-.151.339-.34.339H51.9c-.152 0-.304-.113-.342-.263-.114-.525-.607-.938-1.138-.938h-1.517c-.872 0-1.707.638-1.782 1.5-.114 1.014.682 1.877 1.706 1.877h1.29c2.39 0 4.286 2.025 4.058 4.426-.19 1.914-1.707 3.302-3.527 3.602z"/>
    <defs>
        <linearGradient id="paint0_linear" x1="48.999" x2="48.999" y1="69.999" y2="29.75" gradientUnits="userSpaceOnUse">
            <stop stop-color="#97E4FC" stop-opacity="0"/>
            <stop offset=".302" stop-color="#92F6FC" stop-opacity=".305"/>
            <stop offset=".68" stop-color="#84DFFC" stop-opacity=".685"/>
            <stop offset=".993" stop-color="#74A2FC"/>
        </linearGradient>
    </defs>
</svg>
