<svg width="20" height="20" viewBox="0 0 20 20" fill="none" xmlns="http://www.w3.org/2000/svg">
  <path fill-rule="evenodd" clip-rule="evenodd" d="M1.66699 9.99947C1.66699 5.4003 5.40033 1.66614 10.0003 1.66614C14.6087 1.66614 18.3337 5.4003 18.3337 9.99947C18.3337 14.6003 14.6087 18.3328 10.0003 18.3328C5.40033 18.3328 1.66699 14.6003 1.66699 9.99947ZM9.26699 6.84114C9.26699 6.44197 9.60033 6.1078 10.0003 6.1078C10.4003 6.1078 10.7253 6.44197 10.7253 6.84114V10.5245C10.7253 10.9253 10.4003 11.2495 10.0003 11.2495C9.60033 11.2495 9.26699 10.9253 9.26699 10.5245V6.84114ZM10.0087 13.9003C9.60033 13.9003 9.27533 13.567 9.27533 13.167C9.27533 12.767 9.60033 12.442 10.0003 12.442C10.4087 12.442 10.7337 12.767 10.7337 13.167C10.7337 13.567 10.4087 13.9003 10.0087 13.9003Z" fill="#4E51FF"/>
  </svg>
