<svg xmlns="http://www.w3.org/2000/svg" width="98" height="98" fill="none" viewBox="0 0 98 98">
    <path fill="url(#paint0_linear)" fill-rule="evenodd" d="M32.62 49.798V21h32.913v28.798h13.37L49.077 79.625 19.25 49.798h13.37zm18.146 7.454v-2.548c2.687-.443 4.927-2.492 5.207-5.316.336-3.545-2.464-6.535-5.991-6.535h-1.904c-1.512 0-2.687-1.274-2.52-2.77.113-1.273 1.344-2.214 2.632-2.214h2.24c.784 0 1.511.609 1.68 1.384.055.222.28.388.503.388h2.52c.28 0 .56-.222.504-.499-.224-2.492-2.296-4.485-4.871-4.652v-2.492c0-.277-.224-.498-.504-.498h-2.52c-.28 0-.504.221-.504.498v2.548c-3.135.388-5.543 3.212-5.207 6.48.336 3.1 3.136 5.371 6.271 5.371h1.624c1.511 0 2.687 1.274 2.52 2.77-.113 1.273-1.344 2.214-2.632 2.214h-2.24c-.784 0-1.511-.609-1.68-1.384-.055-.222-.28-.388-.503-.388h-2.52c-.28 0-.504.222-.504.499.224 2.492 2.296 4.485 4.871 4.652v2.492c0 .276.224.498.504.498h2.52c.28 0 .504-.221.504-.498z" clip-rule="evenodd"/>
    <path fill="#E4E5F9" d="M50.766 54.742V57.3c0 .278-.224.5-.504.5h-2.52c-.28 0-.504-.222-.504-.5v-2.502c-2.575-.167-4.647-2.168-4.87-4.67 0-.278.223-.5.503-.5h2.52c.224 0 .448.167.504.39.167.778.895 1.39 1.68 1.39h2.239c1.288 0 2.52-.946 2.631-2.224.168-1.502-1.008-2.78-2.52-2.78h-1.623c-3.135 0-5.935-2.28-6.27-5.392-.337-3.28 2.07-6.115 5.206-6.505V31.95c0-.278.224-.5.504-.5h2.52c.28 0 .504.222.504.5v2.502c2.575.167 4.647 2.168 4.87 4.67.057.278-.223.5-.503.5h-2.52c-.224 0-.448-.167-.504-.39-.168-.778-.895-1.39-1.68-1.39H48.19c-1.288 0-2.52.946-2.631 2.225-.168 1.5 1.007 2.78 2.52 2.78h1.903c3.527 0 6.327 3.001 5.99 6.559-.28 2.835-2.519 4.892-5.206 5.337z"/>
    <defs>
        <linearGradient id="paint0_linear" x1="49.076" x2="49.076" y1="79.624" y2="21" gradientUnits="userSpaceOnUse">
            <stop stop-color="#97E4FC" stop-opacity="0"/>
            <stop offset=".302" stop-color="#92F6FC" stop-opacity=".305"/>
            <stop offset=".68" stop-color="#84DFFC" stop-opacity=".685"/>
            <stop offset=".993" stop-color="#74A2FC"/>
        </linearGradient>
    </defs>
</svg>
