<svg width="20" height="16" viewBox="0 0 20 16" fill="none" xmlns="http://www.w3.org/2000/svg">
<path fill-rule="evenodd" clip-rule="evenodd" d="M1.50777 0.5L18.4922 0.560721C19.3244 0.560721 20 1.22442 20 2.04205C20 2.85858 19.3244 3.52337 18.4922 3.52337L1.50777 3.46265C0.675552 3.46265 0 2.79786 0 1.98133C0 1.1637 0.675552 0.5 1.50777 0.5ZM18.4922 6.56072L1.50777 6.5C0.675552 6.5 0 7.1637 0 7.98133C0 8.79786 0.675552 9.46265 1.50777 9.46265L18.4922 9.52337C19.3244 9.52337 20 8.85858 20 8.04205C20 7.22442 19.3244 6.56072 18.4922 6.56072ZM18.4922 12.5607L1.50777 12.5C0.675552 12.5 0 13.1637 0 13.9813C0 14.7979 0.675552 15.4627 1.50777 15.4627L18.4922 15.5234C19.3244 15.5234 20 14.8586 20 14.042C20 13.2244 19.3244 12.5607 18.4922 12.5607Z" fill="white"/>
</svg>
