<svg width="582" height="557" viewBox="0 0 582 557" fill="none" xmlns="http://www.w3.org/2000/svg">
  <path d="M291.546 372.985L160.047 334.141V150.125L291.546 188.97V372.985Z" fill="url(#paint0_linear)"/>
  <path d="M291.875 557.001L423.374 518.156V334.141L291.875 372.985V557.001Z" fill="url(#paint1_linear)"/>
  <path opacity="0.66" d="M291.721 557.001L160.223 518.156V334.141L291.721 372.985V557.001Z" fill="url(#paint2_linear)"/>
  <path d="M291.721 110.836L160.223 149.666L291.88 188.971L423.379 150.126L291.721 110.836Z" fill="url(#paint3_linear)"/>
  <path opacity="0.66" d="M291.721 294.852L160.223 333.682L291.88 372.986L423.379 334.142L291.721 294.852Z" fill="url(#paint4_linear)"/>
  <path d="M291.723 110.836L160.224 149.666L160.051 334.142L291.881 372.986L423.38 334.142V150.126L291.723 110.836Z" stroke="white" stroke-miterlimit="10"/>
  <path d="M345.607 240.352C350.321 233.969 353.117 226.077 353.117 217.552C353.117 197.626 337.88 181.194 318.419 179.225V164.992H293.12V179.023H284.369V164.992H259.07V179.023H238.859V204.484H250.219V282.547H238.859V308.007H259.07V320.73H284.369V308.007H293.12V320.73H318.419V308.007H320.379C341.686 308.007 359.013 290.727 359.013 269.478C359.013 257.863 353.809 247.425 345.607 240.352ZM314.498 204.498C321.72 204.498 327.587 210.349 327.587 217.552C327.587 224.754 321.72 230.605 314.498 230.605H275.533V204.484H314.498V204.498ZM320.394 282.561H275.533V256.439H320.394C327.616 256.439 333.483 262.29 333.483 269.493C333.483 276.71 327.602 282.561 320.394 282.561Z" fill="#7E81FF"/>
  <path opacity="0.49" d="M288.36 336.055C312.245 336.055 331.607 334.768 331.607 333.18C331.607 331.592 312.245 330.305 288.36 330.305C264.475 330.305 245.113 331.592 245.113 333.18C245.113 334.768 264.475 336.055 288.36 336.055Z" fill="#7E81FF"/>
  <path d="M291.875 372.985L423.374 334.141V150.125L291.875 188.97V372.985Z" fill="url(#paint5_linear)"/>
  <g opacity="0.6">
  <path opacity="0.6" d="M160.423 148.992L291.965 188.714L292.153 188.771V188.972L291.879 270.874L291.619 188.972L291.807 189.231L160.02 150.358L160.423 148.992Z" fill="white"/>
  </g>
  <path d="M289.719 372.985L290.44 343.715L291.16 372.985H289.719Z" fill="white"/>
  <path d="M111.638 141.414L111.465 341.804" stroke="white" stroke-miterlimit="10"/>
  <path d="M263.88 70.6523L139.07 107.513" stroke="white" stroke-miterlimit="10"/>
  <path d="M445.385 108.305L318.398 70.3945" stroke="white" stroke-miterlimit="10"/>
  <path d="M471.984 341.804V141.414" stroke="white" stroke-miterlimit="10"/>
  <path d="M320.605 412.911L445.415 376.051" stroke="white" stroke-miterlimit="10"/>
  <path d="M138.914 376.289L265.786 413.667" stroke="white" stroke-miterlimit="10"/>
  <path d="M293.148 443.321L266.277 435.385V397.777L293.148 405.713V443.321Z" fill="url(#paint6_linear)"/>
  <path d="M293.219 443.321L320.104 435.385V397.777L293.219 405.713V443.321Z" fill="url(#paint7_linear)"/>
  <path d="M293.194 389.738L266.309 397.674L293.222 405.71L320.107 397.775L293.194 389.738Z" fill="url(#paint8_linear)"/>
  <path d="M293.191 389.738L266.306 397.674L266.277 435.383L293.22 443.318L320.105 435.383V397.775L293.191 389.738Z" stroke="white" stroke-miterlimit="10"/>
  <path d="M312.202 402.703L286.917 427.1L273.38 417.884L272.328 419.078L285.201 433.454L287.407 435.912L289.584 433.209L313.369 403.767L312.202 402.703Z" fill="#7E81FF"/>
  <path d="M472.865 141.415L445.98 133.479V95.8711L472.865 103.807V141.415Z" fill="url(#paint9_linear)"/>
  <path d="M472.938 141.415L499.823 133.479V95.8711L472.938 103.807V141.415Z" fill="url(#paint10_linear)"/>
  <path d="M472.894 87.832L446.023 95.7677L472.937 103.804L499.822 95.8683L472.894 87.832Z" fill="url(#paint11_linear)"/>
  <path d="M472.894 87.832L446.024 95.7677L445.98 133.477L472.938 141.412L499.823 133.477V95.8683L472.894 87.832Z" stroke="white" stroke-miterlimit="10"/>
  <path d="M476.989 111.439C476.888 111.353 476.744 111.31 476.614 111.324L474.971 111.583C474.841 111.238 474.697 110.879 474.538 110.534L475.893 109.542C476.009 109.456 476.081 109.341 476.081 109.197C476.095 109.053 476.038 108.924 475.937 108.823L471.136 104.036C471.035 103.935 470.906 103.892 470.761 103.892C470.617 103.906 470.502 103.978 470.416 104.079L469.421 105.43C469.075 105.258 468.729 105.114 468.368 104.999L468.628 103.36C468.642 103.231 468.614 103.087 468.513 102.986C468.426 102.886 468.296 102.828 468.152 102.828H461.363C461.218 102.828 461.089 102.886 461.002 102.986C460.916 103.087 460.872 103.231 460.887 103.36L461.146 104.999C460.8 105.128 460.44 105.272 460.094 105.43L459.099 104.079C459.013 103.964 458.897 103.892 458.753 103.892C458.609 103.878 458.479 103.935 458.378 104.036L453.578 108.823C453.477 108.924 453.434 109.053 453.434 109.197C453.448 109.341 453.52 109.456 453.621 109.542L454.976 110.534C454.803 110.879 454.659 111.224 454.544 111.583L452.901 111.324C452.771 111.31 452.627 111.339 452.526 111.439C452.425 111.526 452.367 111.655 452.367 111.799V118.57C452.367 118.714 452.425 118.843 452.526 118.929C452.627 119.016 452.771 119.059 452.901 119.044L454.544 118.786C454.674 119.131 454.818 119.49 454.976 119.835L453.621 120.827C453.506 120.913 453.434 121.028 453.434 121.172C453.42 121.316 453.477 121.445 453.578 121.546L458.378 126.333C458.479 126.434 458.609 126.477 458.753 126.477C458.897 126.463 459.013 126.391 459.099 126.29L460.094 124.939C460.44 125.111 460.786 125.255 461.146 125.37L460.887 127.009C460.872 127.138 460.901 127.282 461.002 127.383C461.089 127.483 461.218 127.541 461.363 127.541H468.152C468.296 127.541 468.426 127.483 468.513 127.383C468.599 127.282 468.642 127.138 468.628 127.009L468.368 125.37C468.714 125.241 469.075 125.097 469.421 124.939L470.416 126.29C470.502 126.405 470.617 126.477 470.761 126.477C470.906 126.491 471.035 126.434 471.136 126.333L475.937 121.546C476.038 121.445 476.081 121.316 476.081 121.172C476.066 121.028 475.994 120.913 475.893 120.827L474.538 119.835C474.711 119.49 474.856 119.145 474.971 118.786L476.614 119.044C476.758 119.059 476.888 119.03 476.989 118.929C477.09 118.843 477.148 118.714 477.148 118.57V111.799C477.148 111.655 477.09 111.526 476.989 111.439ZM464.765 121.359C461.348 121.359 458.566 118.584 458.566 115.177C458.566 111.77 461.348 108.996 464.765 108.996C468.181 108.996 470.963 111.77 470.963 115.177C470.963 118.599 468.181 121.359 464.765 121.359Z" fill="#7E81FF"/>
  <path d="M494.545 118.067C494.473 118.01 494.386 117.981 494.3 117.996L493.233 118.154C493.147 117.924 493.06 117.708 492.945 117.478L493.824 116.846C493.896 116.788 493.939 116.716 493.954 116.616C493.954 116.529 493.925 116.443 493.867 116.371L490.768 113.28C490.71 113.223 490.624 113.18 490.523 113.194C490.436 113.194 490.35 113.251 490.307 113.323L489.672 114.2C489.442 114.1 489.226 113.999 488.995 113.913L489.153 112.849C489.168 112.763 489.139 112.676 489.081 112.605C489.024 112.533 488.937 112.504 488.851 112.504H484.454C484.368 112.504 484.281 112.547 484.223 112.605C484.166 112.676 484.137 112.763 484.151 112.849L484.31 113.913C484.079 113.999 483.863 114.085 483.632 114.2L482.998 113.323C482.94 113.251 482.868 113.208 482.767 113.194C482.681 113.194 482.594 113.223 482.522 113.28L479.423 116.371C479.365 116.429 479.322 116.515 479.336 116.616C479.336 116.702 479.394 116.788 479.466 116.846L480.346 117.478C480.23 117.708 480.144 117.924 480.057 118.154L478.99 117.996C478.904 117.981 478.818 118.01 478.745 118.067C478.673 118.125 478.645 118.211 478.645 118.298V122.682C478.645 122.769 478.688 122.855 478.745 122.912C478.818 122.97 478.904 122.999 478.99 122.984L480.057 122.826C480.144 123.056 480.23 123.272 480.346 123.502L479.466 124.134C479.394 124.192 479.351 124.264 479.336 124.364C479.336 124.451 479.365 124.537 479.423 124.609L482.522 127.7C482.58 127.757 482.666 127.8 482.767 127.786C482.854 127.786 482.94 127.728 482.998 127.656L483.632 126.779C483.863 126.88 484.079 126.981 484.31 127.067L484.151 128.131C484.137 128.217 484.166 128.303 484.223 128.375C484.281 128.447 484.368 128.476 484.454 128.476H488.851C488.937 128.476 489.024 128.433 489.081 128.375C489.139 128.303 489.168 128.217 489.153 128.131L488.995 127.067C489.226 126.981 489.442 126.895 489.672 126.779L490.307 127.656C490.364 127.728 490.436 127.771 490.523 127.786C490.609 127.786 490.696 127.757 490.768 127.7L493.867 124.609C493.925 124.551 493.968 124.465 493.954 124.364C493.954 124.278 493.896 124.192 493.824 124.134L492.945 123.502C493.06 123.272 493.147 123.056 493.233 122.826L494.3 122.984C494.386 122.999 494.473 122.97 494.545 122.912C494.617 122.855 494.646 122.769 494.646 122.682V118.298C494.66 118.211 494.617 118.125 494.545 118.067ZM486.645 124.479C484.425 124.479 482.638 122.697 482.638 120.483C482.638 118.269 484.425 116.486 486.645 116.486C488.865 116.486 490.653 118.269 490.653 120.483C490.653 122.697 488.851 124.479 486.645 124.479Z" fill="#7E81FF"/>
  <path d="M111.494 141.415L84.6094 133.479V95.8711L111.494 103.807V141.415Z" fill="url(#paint12_linear)"/>
  <path d="M111.555 141.415L138.44 133.479V95.8711L111.555 103.807V141.415Z" fill="url(#paint13_linear)"/>
  <path d="M111.526 87.832L84.6406 95.7677L111.554 103.804L138.44 95.8683L111.526 87.832Z" fill="url(#paint14_linear)"/>
  <path d="M111.523 87.832L84.6382 95.7677L84.6094 133.477L111.552 141.412L138.437 133.477V95.8683L111.523 87.832Z" stroke="white" stroke-miterlimit="10"/>
  <path d="M120.851 106.668H102.211C99.9338 106.668 98.0742 108.522 98.0742 110.794V127.916C98.0742 130.187 99.9338 132.042 102.211 132.042H120.851C123.128 132.042 124.988 130.187 124.988 127.916V110.794C124.988 108.522 123.114 106.668 120.851 106.668ZM113.427 117.335L114.321 127.154H109.722L110.616 117.335C109.362 116.789 108.482 115.552 108.482 114.1C108.482 112.145 110.068 110.564 112.028 110.564C113.989 110.564 115.575 112.145 115.575 114.1C115.56 115.552 114.681 116.803 113.427 117.335Z" fill="#7E81FF"/>
  <path d="M120.705 109.168V105.775C120.705 100.714 116.597 96.6172 111.523 96.6172C106.448 96.6172 102.34 100.714 102.34 105.775V109.168" stroke="#7E81FF" stroke-width="2.1572" stroke-miterlimit="10"/>
  <path d="M291.229 86.7613L264.344 78.8257V41.2031L291.229 49.1388V86.7613Z" fill="url(#paint15_linear)"/>
  <path d="M291.301 86.7613L318.186 78.8257V41.2031L291.301 49.1388V86.7613Z" fill="url(#paint16_linear)"/>
  <path d="M291.257 33.1641L264.387 41.1141L291.301 49.136L318.186 41.2004L291.257 33.1641Z" fill="url(#paint17_linear)"/>
  <path d="M291.258 33.1641L264.387 41.1141L264.344 78.8229L291.301 86.7586L318.186 78.8229V41.2004L291.258 33.1641Z" stroke="white" stroke-miterlimit="10"/>
  <path d="M300.081 53H281.442C279.164 53 277.305 54.8545 277.305 57.126V74.248C277.305 76.5195 279.164 78.374 281.442 78.374H300.081C302.359 78.374 304.219 76.5195 304.219 74.248V57.126C304.219 54.8545 302.359 53 300.081 53ZM292.672 63.6671L293.565 73.4861H288.967L289.861 63.6671C288.606 63.1208 287.727 61.8845 287.727 60.4325C287.727 58.4773 289.313 56.896 291.273 56.896C293.234 56.896 294.82 58.4773 294.82 60.4325C294.805 61.8845 293.926 63.1208 292.672 63.6671Z" fill="#7E81FF"/>
  <path d="M299.936 55.4996V52.1069C299.936 47.0464 295.827 42.9492 290.753 42.9492C285.679 42.9492 281.57 47.0464 281.57 52.1069V55.4996" stroke="#7E81FF" stroke-width="2.1572" stroke-miterlimit="10"/>
  <path d="M111.494 395.398L84.6094 387.462V349.84L111.494 357.775V395.398Z" fill="url(#paint18_linear)"/>
  <path d="M111.555 395.398L138.44 387.462V349.84L111.555 357.775V395.398Z" fill="url(#paint19_linear)"/>
  <path d="M111.526 341.801L84.6406 349.751L111.554 357.773L138.44 349.837L111.526 341.801Z" fill="url(#paint20_linear)"/>
  <path d="M111.523 341.801L84.6382 349.751L84.6094 387.46L111.552 395.395L138.437 387.46V349.837L111.523 341.801Z" stroke="white" stroke-miterlimit="10"/>
  <path d="M120.851 360.648H102.211C99.9338 360.648 98.0742 362.503 98.0742 364.774V381.896C98.0742 384.168 99.9338 386.022 102.211 386.022H120.851C123.128 386.022 124.988 384.168 124.988 381.896V364.774C124.988 362.503 123.114 360.648 120.851 360.648ZM113.427 371.316L114.321 381.135H109.722L110.616 371.316C109.362 370.769 108.482 369.533 108.482 368.081C108.482 366.126 110.068 364.544 112.028 364.544C113.989 364.544 115.575 366.126 115.575 368.081C115.56 369.533 114.681 370.769 113.427 371.316Z" fill="#7E81FF"/>
  <path d="M120.705 363.152V359.759C120.705 354.699 116.597 350.602 111.523 350.602C106.448 350.602 102.34 354.699 102.34 359.759V363.152" stroke="#7E81FF" stroke-width="2.1572" stroke-miterlimit="10"/>
  <path d="M472.865 395.398L445.98 387.462V349.84L472.865 357.775V395.398Z" fill="url(#paint21_linear)"/>
  <path d="M472.938 395.398L499.823 387.462V349.84L472.938 357.775V395.398Z" fill="url(#paint22_linear)"/>
  <path d="M472.894 341.801L446.023 349.751L472.937 357.773L499.822 349.837L472.894 341.801Z" fill="url(#paint23_linear)"/>
  <path d="M472.894 341.801L446.024 349.751L445.98 387.46L472.938 395.395L499.823 387.46V349.837L472.894 341.801Z" stroke="white" stroke-miterlimit="10"/>
  <path d="M483.159 360.648H464.52C462.242 360.648 460.383 362.503 460.383 364.774V381.896C460.383 384.168 462.242 386.022 464.52 386.022H483.159C485.437 386.022 487.297 384.168 487.297 381.896V364.774C487.297 362.503 485.437 360.648 483.159 360.648ZM475.75 371.316L476.644 381.135H472.045L472.939 371.316C471.685 370.769 470.805 369.533 470.805 368.081C470.805 366.126 472.391 364.544 474.352 364.544C476.312 364.544 477.898 366.126 477.898 368.081C477.883 369.533 477.004 370.769 475.75 371.316Z" fill="#7E81FF"/>
  <path d="M483.014 363.152V359.759C483.014 354.699 478.905 350.602 473.831 350.602C468.757 350.602 464.648 354.699 464.648 359.759V363.152" stroke="#7E81FF" stroke-width="2.1572" stroke-miterlimit="10"/>
  <path d="M526.451 49.3472L364.449 1" stroke="white" stroke-miterlimit="10"/>
  <path d="M555.512 205.229V87.7461" stroke="white" stroke-miterlimit="10"/>
  <path d="M555.512 396.433V258.824" stroke="white" stroke-miterlimit="10"/>
  <path d="M320.121 496.232L526.826 435.176" stroke="white" stroke-miterlimit="10"/>
  <path d="M56.8906 435.246L265.051 496.561" stroke="white" stroke-miterlimit="10"/>
  <path d="M28.0749 258.824L27.9453 396.433" stroke="white" stroke-miterlimit="10"/>
  <path d="M28.2336 87.7461L28.1328 205.229" stroke="white" stroke-miterlimit="10"/>
  <path d="M212.755 2.60938L55.9141 48.9439" stroke="white" stroke-miterlimit="10"/>
  <path d="M27.885 87.7496L1 79.8139V42.1914L27.885 50.1271V87.7496Z" fill="url(#paint24_linear)"/>
  <path d="M27.9414 87.7496L54.8264 79.8139V42.1914L27.9414 50.1271V87.7496Z" fill="url(#paint25_linear)"/>
  <path d="M27.9163 34.1523L1.03125 42.088L27.9451 50.1243L54.8302 42.1887L27.9163 34.1523Z" fill="url(#paint26_linear)"/>
  <path d="M27.9139 34.1523L1.02883 42.088L1 79.8112L27.9427 87.7469L54.8277 79.8112V42.1887L27.9139 34.1523Z" stroke="white" stroke-miterlimit="10"/>
  <path d="M22.2229 77.755L26.908 65.2621C27.1531 64.6151 26.9945 63.8819 26.5332 63.3932L27.9892 60.0004C32.5012 61.5099 37.5034 59.3391 39.3919 54.9112C41.3812 50.2533 39.2045 44.8478 34.5338 42.8639C29.8632 40.88 24.4429 43.0508 22.4536 47.7087C21.4589 50.0376 21.5022 52.5535 22.3815 54.7387C23.1744 56.7082 24.6592 58.4046 26.6629 59.4397L25.207 62.8325C24.5438 62.8469 23.9096 63.2063 23.5924 63.8532L17.7974 75.8717C17.7685 75.9292 17.7397 76.0011 17.7109 76.073C17.2496 77.3093 17.8694 78.7038 19.1236 79.1639C20.3777 79.6383 21.7616 79.0057 22.2229 77.755ZM37.4025 54.063C35.8745 57.6283 31.7372 59.2816 28.1622 57.772C24.5871 56.2482 22.9293 52.1222 24.4429 48.5569C25.971 44.9916 30.1083 43.3383 33.6833 44.8478C35.4708 45.6098 36.7827 47.0186 37.4458 48.6863C38.1233 50.3683 38.1666 52.2803 37.4025 54.063Z" fill="#7E81FF"/>
  <path d="M554.043 258.828L527.172 250.892V213.27L554.043 221.205V258.828Z" fill="url(#paint27_linear)"/>
  <path d="M554.113 258.828L580.998 250.892V213.27L554.113 221.205V258.828Z" fill="url(#paint28_linear)"/>
  <path d="M554.088 205.23L527.203 213.181L554.117 221.202L581.002 213.267L554.088 205.23Z" fill="url(#paint29_linear)"/>
  <path d="M554.086 205.23L527.201 213.181L527.172 250.889L554.115 258.825L581 250.889V213.267L554.086 205.23Z" stroke="white" stroke-miterlimit="10"/>
  <path d="M550.324 248.829L555.01 236.336C555.255 235.689 555.096 234.956 554.635 234.467L556.091 231.075C560.603 232.584 565.605 230.413 567.493 225.985C569.483 221.328 567.306 215.922 562.635 213.938C557.965 211.954 552.544 214.125 550.555 218.783C549.56 221.112 549.604 223.628 550.483 225.813C551.276 227.782 552.761 229.479 554.764 230.514L553.309 233.907C552.645 233.907 552.011 234.28 551.694 234.927L545.899 246.946C545.87 247.003 545.841 247.075 545.812 247.147C545.351 248.383 545.971 249.778 547.225 250.238C548.465 250.712 549.849 250.08 550.324 248.829ZM565.49 225.137C563.962 228.702 559.824 230.356 556.249 228.846C552.674 227.322 551.016 223.196 552.53 219.631C554.058 216.066 558.195 214.413 561.77 215.922C563.558 216.684 564.87 218.093 565.533 219.76C566.225 221.443 566.254 223.355 565.49 225.137Z" fill="#7E81FF"/>
  <path d="M554.043 87.7496L527.172 79.8139V42.1914L554.043 50.1271V87.7496Z" fill="url(#paint30_linear)"/>
  <path d="M554.113 87.7496L580.998 79.8139V42.1914L554.113 50.1271V87.7496Z" fill="url(#paint31_linear)"/>
  <path d="M554.088 34.1523L527.203 42.088L554.117 50.1243L581.002 42.1887L554.088 34.1523Z" fill="url(#paint32_linear)"/>
  <path d="M554.086 34.1523L527.201 42.088L527.172 79.8112L554.115 87.7469L581 79.8112V42.1887L554.086 34.1523Z" stroke="white" stroke-miterlimit="10"/>
  <path d="M572.651 47.1367L547.366 71.5332L533.815 62.318L532.777 63.5112L545.65 77.8874L547.856 80.3458L550.033 77.6431L573.818 48.2006L572.651 47.1367Z" fill="#7E81FF"/>
  <path d="M27.885 450.031L1 442.095V404.473L27.885 412.408V450.031Z" fill="url(#paint33_linear)"/>
  <path d="M27.9414 450.031L54.8264 442.095V404.473L27.9414 412.408V450.031Z" fill="url(#paint34_linear)"/>
  <path d="M27.9163 396.434L1.03125 404.369L27.9451 412.406L54.8302 404.47L27.9163 396.434Z" fill="url(#paint35_linear)"/>
  <path d="M27.9139 396.434L1.02883 404.369L1 442.092L27.9427 450.028L54.8277 442.092V404.47L27.9139 396.434Z" stroke="white" stroke-miterlimit="10"/>
  <path d="M46.4828 408.449L21.1979 432.846L7.6473 423.631L6.60938 424.824L19.4825 439.2L21.6881 441.658L23.8648 438.956L47.6505 409.513L46.4828 408.449Z" fill="#7E81FF"/>
  <path d="M27.885 258.828L1 250.892V213.27L27.885 221.205V258.828Z" fill="url(#paint36_linear)"/>
  <path d="M27.9414 258.828L54.8264 250.892V213.27L27.9414 221.205V258.828Z" fill="url(#paint37_linear)"/>
  <path d="M27.9163 205.23L1.03125 213.181L27.9451 221.202L54.8302 213.267L27.9163 205.23Z" fill="url(#paint38_linear)"/>
  <path d="M27.9139 205.23L1.02883 213.181L1 250.889L27.9427 258.825L54.8277 250.889V213.267L27.9139 205.23Z" stroke="white" stroke-miterlimit="10"/>
  <path d="M30.5398 229.322C30.4389 229.236 30.2947 229.193 30.165 229.207L28.5216 229.466C28.3918 229.121 28.2477 228.762 28.0891 228.417L29.4442 227.425C29.5595 227.338 29.6316 227.223 29.6316 227.08C29.646 226.936 29.5883 226.806 29.4874 226.706L24.687 221.919C24.5861 221.818 24.4564 221.775 24.3122 221.775C24.1681 221.789 24.0528 221.861 23.9663 221.962L22.9716 223.313C22.6256 223.141 22.2796 222.997 21.9193 222.882L22.1787 221.243C22.1931 221.113 22.1643 220.97 22.0634 220.869C21.9769 220.768 21.8472 220.711 21.703 220.711H14.9133C14.7691 220.711 14.6394 220.768 14.5529 220.869C14.4664 220.97 14.4232 221.113 14.4376 221.243L14.6971 222.882C14.3511 223.011 13.9907 223.155 13.6447 223.313L12.65 221.962C12.5636 221.847 12.4482 221.775 12.3041 221.775C12.1599 221.76 12.0302 221.818 11.9293 221.919L7.12888 226.706C7.02797 226.806 6.98472 226.936 6.98472 227.08C6.99914 227.223 7.07121 227.338 7.17212 227.425L8.52719 228.417C8.3542 228.762 8.21005 229.107 8.09472 229.466L6.45134 229.207C6.3216 229.193 6.17745 229.222 6.07654 229.322C5.97563 229.409 5.91797 229.538 5.91797 229.682V236.453C5.91797 236.597 5.97563 236.726 6.07654 236.812C6.17745 236.899 6.3216 236.942 6.45134 236.927L8.09472 236.669C8.22446 237.014 8.36862 237.373 8.52719 237.718L7.17212 238.71C7.0568 238.796 6.98472 238.911 6.98472 239.055C6.97031 239.199 7.02797 239.328 7.12888 239.429L11.9293 244.216C12.0302 244.317 12.1599 244.36 12.3041 244.36C12.4482 244.345 12.5636 244.274 12.65 244.173L13.6447 242.822C13.9907 242.994 14.3367 243.138 14.6971 243.253L14.4376 244.892C14.4232 245.021 14.452 245.165 14.5529 245.266C14.6394 245.366 14.7691 245.424 14.9133 245.424H21.703C21.8472 245.424 21.9769 245.366 22.0634 245.266C22.1499 245.165 22.1931 245.021 22.1787 244.892L21.9193 243.253C22.2652 243.123 22.6256 242.98 22.9716 242.822L23.9663 244.173C24.0528 244.288 24.1681 244.36 24.3122 244.36C24.4564 244.374 24.5861 244.317 24.687 244.216L29.4874 239.429C29.5883 239.328 29.6316 239.199 29.6316 239.055C29.6172 238.911 29.5451 238.796 29.4442 238.71L28.0891 237.718C28.2621 237.373 28.4063 237.028 28.5216 236.669L30.165 236.927C30.3091 236.942 30.4389 236.913 30.5398 236.812C30.6407 236.726 30.6983 236.597 30.6983 236.453V229.682C30.6983 229.538 30.6407 229.409 30.5398 229.322ZM18.3154 239.242C14.8989 239.242 12.1167 236.467 12.1167 233.06C12.1167 229.653 14.8845 226.878 18.3154 226.878C21.7318 226.878 24.5141 229.653 24.5141 233.06C24.5141 236.482 21.7318 239.242 18.3154 239.242Z" fill="#7E81FF"/>
  <path d="M48.0969 235.95C48.0248 235.893 47.9383 235.864 47.8518 235.878L46.7851 236.037C46.6986 235.807 46.6121 235.591 46.4968 235.361L47.3761 234.728C47.4482 234.671 47.4914 234.599 47.5059 234.498C47.5059 234.412 47.477 234.326 47.4194 234.254L44.32 231.163C44.2624 231.106 44.1759 231.062 44.075 231.077C43.9885 231.077 43.902 231.134 43.8587 231.206L43.2244 232.083C42.9938 231.982 42.7776 231.882 42.5469 231.796L42.7055 230.732C42.7199 230.645 42.6911 230.559 42.6334 230.487C42.5757 230.415 42.4892 230.387 42.4027 230.387H38.006C37.9195 230.387 37.833 230.43 37.7753 230.487C37.7177 230.559 37.6889 230.645 37.7033 230.732L37.8618 231.796C37.6312 231.882 37.415 231.968 37.1843 232.083L36.55 231.206C36.4924 231.134 36.4203 231.091 36.3338 231.077C36.2473 231.077 36.1608 231.106 36.0887 231.163L32.9894 234.254C32.9317 234.311 32.8885 234.398 32.9029 234.498C32.9029 234.585 32.9605 234.671 33.0326 234.728L33.912 235.361C33.8111 235.591 33.7102 235.807 33.6237 236.037L32.5569 235.878C32.4704 235.864 32.3839 235.893 32.3118 235.95C32.2398 236.008 32.2109 236.094 32.2109 236.18V240.565C32.2109 240.651 32.2542 240.738 32.3118 240.795C32.3839 240.853 32.4704 240.881 32.5569 240.867L33.6237 240.709C33.7102 240.939 33.7966 241.155 33.912 241.385L33.0326 242.017C32.9605 242.075 32.9173 242.146 32.9029 242.247C32.9029 242.333 32.9317 242.42 32.9894 242.491L36.0887 245.582C36.1464 245.64 36.2329 245.683 36.3338 245.669C36.4203 245.669 36.5068 245.611 36.55 245.539L37.1843 244.662C37.415 244.763 37.6312 244.864 37.8618 244.95L37.7033 246.014C37.6889 246.1 37.7177 246.186 37.7753 246.258C37.833 246.33 37.9195 246.359 38.006 246.359H42.4027C42.4892 246.359 42.5757 246.316 42.6334 246.258C42.6911 246.186 42.7199 246.1 42.7055 246.014L42.5469 244.95C42.7776 244.864 42.9938 244.777 43.2244 244.662L43.8587 245.539C43.9164 245.611 43.9885 245.654 44.075 245.669C44.1614 245.669 44.2479 245.64 44.32 245.582L47.4194 242.491C47.477 242.434 47.5203 242.348 47.5059 242.247C47.5059 242.161 47.4482 242.075 47.3761 242.017L46.4968 241.385C46.6121 241.155 46.6986 240.939 46.7851 240.709L47.8518 240.867C47.9383 240.881 48.0248 240.853 48.0969 240.795C48.169 240.738 48.1978 240.651 48.1978 240.565V236.18C48.2122 236.094 48.169 236.008 48.0969 235.95ZM40.1972 242.362C37.9772 242.362 36.1896 240.579 36.1896 238.366C36.1896 236.152 37.9772 234.369 40.1972 234.369C42.4172 234.369 44.2047 236.152 44.2047 238.366C44.2047 240.579 42.4027 242.362 40.1972 242.362Z" fill="#7E81FF"/>
  <path d="M554.043 450.031L527.172 442.095V404.473L554.043 412.408V450.031Z" fill="url(#paint39_linear)"/>
  <path d="M554.113 450.031L580.998 442.095V404.473L554.113 412.408V450.031Z" fill="url(#paint40_linear)"/>
  <path d="M554.088 396.434L527.203 404.369L554.117 412.406L581.002 404.47L554.088 396.434Z" fill="url(#paint41_linear)"/>
  <path d="M554.086 396.434L527.201 404.369L527.172 442.092L554.115 450.028L581 442.092V404.47L554.086 396.434Z" stroke="white" stroke-miterlimit="10"/>
  <path d="M572.12 419.274C571.976 419.145 571.774 419.102 571.587 419.116L569.266 419.475C569.093 418.987 568.877 418.498 568.646 418.009L570.549 416.615C570.707 416.5 570.808 416.327 570.823 416.126C570.837 415.924 570.765 415.738 570.635 415.608L563.86 408.851C563.716 408.708 563.528 408.636 563.341 408.665C563.154 408.679 562.966 408.78 562.851 408.938L561.453 410.835C560.962 410.605 560.472 410.39 559.982 410.217L560.343 407.903C560.371 407.716 560.314 407.514 560.184 407.371C560.054 407.227 559.867 407.141 559.679 407.141H550.093C549.891 407.141 549.718 407.227 549.589 407.371C549.459 407.514 549.401 407.716 549.43 407.903L549.79 410.217C549.3 410.39 548.796 410.605 548.32 410.835L546.922 408.938C546.806 408.78 546.633 408.679 546.432 408.665C546.23 408.65 546.042 408.722 545.913 408.851L539.137 415.608C538.993 415.752 538.936 415.939 538.95 416.126C538.964 416.327 539.065 416.5 539.224 416.615L541.127 418.009C540.896 418.498 540.68 418.987 540.507 419.475L538.186 419.116C537.998 419.087 537.797 419.145 537.653 419.274C537.508 419.404 537.422 419.59 537.422 419.777V429.338C537.422 429.539 537.508 429.711 537.653 429.841C537.797 429.97 537.998 430.013 538.186 429.999L540.507 429.639C540.68 430.128 540.896 430.617 541.127 431.106L539.224 432.5C539.065 432.615 538.964 432.788 538.95 432.989C538.936 433.19 539.008 433.377 539.137 433.507L545.913 440.263C546.057 440.407 546.244 440.465 546.432 440.45C546.619 440.436 546.806 440.335 546.922 440.177L548.32 438.28C548.81 438.51 549.3 438.725 549.79 438.898L549.43 441.212C549.401 441.399 549.459 441.6 549.589 441.744C549.718 441.888 549.906 441.974 550.093 441.974H559.679C559.881 441.974 560.054 441.888 560.184 441.744C560.314 441.6 560.371 441.399 560.343 441.212L559.982 438.898C560.472 438.725 560.962 438.51 561.453 438.28L562.851 440.177C562.966 440.335 563.139 440.436 563.341 440.45C563.543 440.465 563.73 440.393 563.86 440.263L570.635 433.507C570.779 433.363 570.837 433.176 570.823 432.989C570.808 432.802 570.707 432.615 570.549 432.5L568.646 431.106C568.877 430.617 569.093 430.128 569.266 429.639L571.587 429.999C571.789 430.028 571.976 429.97 572.12 429.841C572.264 429.711 572.351 429.524 572.351 429.338V419.777C572.351 419.59 572.264 419.404 572.12 419.274ZM554.865 433.277C550.035 433.277 546.114 429.366 546.114 424.55C546.114 419.734 550.035 415.824 554.865 415.824C559.694 415.824 563.615 419.734 563.615 424.55C563.615 429.366 559.694 433.277 554.865 433.277Z" fill="#7E81FF"/>
  <path d="M293.148 529.575L266.277 521.639V484.031L293.148 491.967V529.575Z" fill="url(#paint42_linear)"/>
  <path d="M293.219 529.575L320.104 521.639V484.031L293.219 491.967V529.575Z" fill="url(#paint43_linear)"/>
  <path d="M293.194 475.992L266.309 483.928L293.222 491.964L320.107 484.029L293.194 475.992Z" fill="url(#paint44_linear)"/>
  <path d="M293.191 475.992L266.306 483.928L266.277 521.637L293.22 529.572L320.105 521.637V484.028L293.191 475.992Z" stroke="white" stroke-miterlimit="10"/>
  <path d="M301.995 496.266H283.356C281.078 496.266 279.219 498.12 279.219 500.392V517.514C279.219 519.785 281.078 521.64 283.356 521.64H301.995C304.273 521.64 306.133 519.785 306.133 517.514V500.392C306.133 498.12 304.273 496.266 301.995 496.266ZM294.586 506.933L295.48 516.752H290.881L291.775 506.933C290.521 506.386 289.641 505.15 289.641 503.698C289.641 501.743 291.227 500.162 293.187 500.162C295.148 500.162 296.734 501.743 296.734 503.698C296.719 505.15 295.84 506.401 294.586 506.933Z" fill="#7E81FF"/>
  <path d="M301.865 498.766V491.06C301.865 486 297.757 481.902 292.683 481.902C287.608 481.902 283.5 486 283.5 491.06V491.578" stroke="#7E81FF" stroke-width="2.1572" stroke-miterlimit="10"/>
  <path d="M292.945 475.744V443.656" stroke="white" stroke-miterlimit="10"/>
  <defs>
  <linearGradient id="paint0_linear" x1="160.05" y1="261.554" x2="291.542" y2="261.554" gradientUnits="userSpaceOnUse">
  <stop stop-color="white" stop-opacity="0"/>
  <stop offset="1" stop-color="white"/>
  </linearGradient>
  <linearGradient id="paint1_linear" x1="357.627" y1="556.998" x2="357.627" y2="334.142" gradientUnits="userSpaceOnUse">
  <stop offset="0.00066106" stop-color="#97CCFC" stop-opacity="0"/>
  <stop offset="0.9926" stop-color="#74BBFC"/>
  </linearGradient>
  <linearGradient id="paint2_linear" x1="225.97" y1="556.998" x2="225.97" y2="334.142" gradientUnits="userSpaceOnUse">
  <stop stop-color="#97E4FC" stop-opacity="0"/>
  <stop offset="0.3025" stop-color="#92F6FC" stop-opacity="0.3048"/>
  <stop offset="0.6804" stop-color="#84DFFC" stop-opacity="0.6855"/>
  <stop offset="0.9926" stop-color="#74A2FC"/>
  </linearGradient>
  <linearGradient id="paint3_linear" x1="160.224" y1="149.9" x2="423.378" y2="149.9" gradientUnits="userSpaceOnUse">
  <stop stop-color="white" stop-opacity="0"/>
  <stop offset="1" stop-color="white"/>
  </linearGradient>
  <linearGradient id="paint4_linear" x1="160.224" y1="333.916" x2="423.378" y2="333.916" gradientUnits="userSpaceOnUse">
  <stop stop-color="#97D2FC" stop-opacity="0"/>
  <stop offset="0.3025" stop-color="#92E3FC" stop-opacity="0.3048"/>
  <stop offset="0.6804" stop-color="#84E6FC" stop-opacity="0.6855"/>
  <stop offset="0.9926" stop-color="#74FC82"/>
  </linearGradient>
  <linearGradient id="paint5_linear" x1="291.881" y1="261.554" x2="423.373" y2="261.554" gradientUnits="userSpaceOnUse">
  <stop stop-color="white" stop-opacity="0"/>
  <stop offset="1" stop-color="white"/>
  </linearGradient>
  <linearGradient id="paint6_linear" x1="266.274" y1="420.549" x2="293.154" y2="420.549" gradientUnits="userSpaceOnUse">
  <stop stop-color="white" stop-opacity="0"/>
  <stop offset="1" stop-color="white"/>
  </linearGradient>
  <linearGradient id="paint7_linear" x1="293.222" y1="420.549" x2="320.102" y2="420.549" gradientUnits="userSpaceOnUse">
  <stop stop-color="white" stop-opacity="0"/>
  <stop offset="1" stop-color="white"/>
  </linearGradient>
  <linearGradient id="paint8_linear" x1="266.311" y1="397.721" x2="320.106" y2="397.721" gradientUnits="userSpaceOnUse">
  <stop stop-color="white" stop-opacity="0"/>
  <stop offset="1" stop-color="white"/>
  </linearGradient>
  <linearGradient id="paint9_linear" x1="445.986" y1="118.643" x2="472.866" y2="118.643" gradientUnits="userSpaceOnUse">
  <stop stop-color="white" stop-opacity="0"/>
  <stop offset="1" stop-color="white"/>
  </linearGradient>
  <linearGradient id="paint10_linear" x1="472.936" y1="118.643" x2="499.816" y2="118.643" gradientUnits="userSpaceOnUse">
  <stop stop-color="white" stop-opacity="0"/>
  <stop offset="1" stop-color="white"/>
  </linearGradient>
  <linearGradient id="paint11_linear" x1="446.021" y1="95.815" x2="499.816" y2="95.815" gradientUnits="userSpaceOnUse">
  <stop stop-color="white" stop-opacity="0"/>
  <stop offset="1" stop-color="white"/>
  </linearGradient>
  <linearGradient id="paint12_linear" x1="84.6081" y1="118.643" x2="111.488" y2="118.643" gradientUnits="userSpaceOnUse">
  <stop stop-color="white" stop-opacity="0"/>
  <stop offset="1" stop-color="white"/>
  </linearGradient>
  <linearGradient id="paint13_linear" x1="111.561" y1="118.643" x2="138.441" y2="118.643" gradientUnits="userSpaceOnUse">
  <stop stop-color="white" stop-opacity="0"/>
  <stop offset="1" stop-color="white"/>
  </linearGradient>
  <linearGradient id="paint14_linear" x1="84.6454" y1="95.815" x2="138.44" y2="95.815" gradientUnits="userSpaceOnUse">
  <stop stop-color="white" stop-opacity="0"/>
  <stop offset="1" stop-color="white"/>
  </linearGradient>
  <linearGradient id="paint15_linear" x1="264.35" y1="63.9834" x2="291.23" y2="63.9834" gradientUnits="userSpaceOnUse">
  <stop stop-color="white" stop-opacity="0"/>
  <stop offset="1" stop-color="white"/>
  </linearGradient>
  <linearGradient id="paint16_linear" x1="291.299" y1="63.9834" x2="318.179" y2="63.9834" gradientUnits="userSpaceOnUse">
  <stop stop-color="white" stop-opacity="0"/>
  <stop offset="1" stop-color="white"/>
  </linearGradient>
  <linearGradient id="paint17_linear" x1="264.384" y1="41.1556" x2="318.179" y2="41.1556" gradientUnits="userSpaceOnUse">
  <stop stop-color="white" stop-opacity="0"/>
  <stop offset="1" stop-color="white"/>
  </linearGradient>
  <linearGradient id="paint18_linear" x1="84.6081" y1="372.621" x2="111.488" y2="372.621" gradientUnits="userSpaceOnUse">
  <stop stop-color="white" stop-opacity="0"/>
  <stop offset="1" stop-color="white"/>
  </linearGradient>
  <linearGradient id="paint19_linear" x1="111.561" y1="372.621" x2="138.441" y2="372.621" gradientUnits="userSpaceOnUse">
  <stop stop-color="white" stop-opacity="0"/>
  <stop offset="1" stop-color="white"/>
  </linearGradient>
  <linearGradient id="paint20_linear" x1="84.6454" y1="349.793" x2="138.44" y2="349.793" gradientUnits="userSpaceOnUse">
  <stop stop-color="white" stop-opacity="0"/>
  <stop offset="1" stop-color="white"/>
  </linearGradient>
  <linearGradient id="paint21_linear" x1="445.986" y1="372.621" x2="472.866" y2="372.621" gradientUnits="userSpaceOnUse">
  <stop stop-color="white" stop-opacity="0"/>
  <stop offset="1" stop-color="white"/>
  </linearGradient>
  <linearGradient id="paint22_linear" x1="472.936" y1="372.621" x2="499.816" y2="372.621" gradientUnits="userSpaceOnUse">
  <stop stop-color="white" stop-opacity="0"/>
  <stop offset="1" stop-color="white"/>
  </linearGradient>
  <linearGradient id="paint23_linear" x1="446.021" y1="349.793" x2="499.816" y2="349.793" gradientUnits="userSpaceOnUse">
  <stop stop-color="white" stop-opacity="0"/>
  <stop offset="1" stop-color="white"/>
  </linearGradient>
  <linearGradient id="paint24_linear" x1="0.998703" y1="64.9691" x2="27.8787" y2="64.9691" gradientUnits="userSpaceOnUse">
  <stop stop-color="white" stop-opacity="0"/>
  <stop offset="1" stop-color="white"/>
  </linearGradient>
  <linearGradient id="paint25_linear" x1="27.9473" y1="64.9691" x2="54.8273" y2="64.9691" gradientUnits="userSpaceOnUse">
  <stop stop-color="white" stop-opacity="0"/>
  <stop offset="1" stop-color="white"/>
  </linearGradient>
  <linearGradient id="paint26_linear" x1="1.03601" y1="42.1412" x2="54.831" y2="42.1412" gradientUnits="userSpaceOnUse">
  <stop stop-color="white" stop-opacity="0"/>
  <stop offset="1" stop-color="white"/>
  </linearGradient>
  <linearGradient id="paint27_linear" x1="527.17" y1="236.048" x2="554.05" y2="236.048" gradientUnits="userSpaceOnUse">
  <stop stop-color="white" stop-opacity="0"/>
  <stop offset="1" stop-color="white"/>
  </linearGradient>
  <linearGradient id="paint28_linear" x1="554.118" y1="236.048" x2="580.998" y2="236.048" gradientUnits="userSpaceOnUse">
  <stop stop-color="white" stop-opacity="0"/>
  <stop offset="1" stop-color="white"/>
  </linearGradient>
  <linearGradient id="paint29_linear" x1="527.207" y1="213.22" x2="581.002" y2="213.22" gradientUnits="userSpaceOnUse">
  <stop stop-color="white" stop-opacity="0"/>
  <stop offset="1" stop-color="white"/>
  </linearGradient>
  <linearGradient id="paint30_linear" x1="527.17" y1="64.9691" x2="554.05" y2="64.9691" gradientUnits="userSpaceOnUse">
  <stop stop-color="white" stop-opacity="0"/>
  <stop offset="1" stop-color="white"/>
  </linearGradient>
  <linearGradient id="paint31_linear" x1="554.118" y1="64.9691" x2="580.998" y2="64.9691" gradientUnits="userSpaceOnUse">
  <stop stop-color="white" stop-opacity="0"/>
  <stop offset="1" stop-color="white"/>
  </linearGradient>
  <linearGradient id="paint32_linear" x1="527.207" y1="42.1412" x2="581.002" y2="42.1412" gradientUnits="userSpaceOnUse">
  <stop stop-color="white" stop-opacity="0"/>
  <stop offset="1" stop-color="white"/>
  </linearGradient>
  <linearGradient id="paint33_linear" x1="0.998703" y1="427.25" x2="27.8787" y2="427.25" gradientUnits="userSpaceOnUse">
  <stop stop-color="white" stop-opacity="0"/>
  <stop offset="1" stop-color="white"/>
  </linearGradient>
  <linearGradient id="paint34_linear" x1="27.9473" y1="427.25" x2="54.8273" y2="427.25" gradientUnits="userSpaceOnUse">
  <stop stop-color="white" stop-opacity="0"/>
  <stop offset="1" stop-color="white"/>
  </linearGradient>
  <linearGradient id="paint35_linear" x1="1.03601" y1="404.422" x2="54.831" y2="404.422" gradientUnits="userSpaceOnUse">
  <stop stop-color="white" stop-opacity="0"/>
  <stop offset="1" stop-color="white"/>
  </linearGradient>
  <linearGradient id="paint36_linear" x1="0.998703" y1="236.048" x2="27.8787" y2="236.048" gradientUnits="userSpaceOnUse">
  <stop stop-color="white" stop-opacity="0"/>
  <stop offset="1" stop-color="white"/>
  </linearGradient>
  <linearGradient id="paint37_linear" x1="27.9473" y1="236.048" x2="54.8273" y2="236.048" gradientUnits="userSpaceOnUse">
  <stop stop-color="white" stop-opacity="0"/>
  <stop offset="1" stop-color="white"/>
  </linearGradient>
  <linearGradient id="paint38_linear" x1="1.03601" y1="213.22" x2="54.831" y2="213.22" gradientUnits="userSpaceOnUse">
  <stop stop-color="white" stop-opacity="0"/>
  <stop offset="1" stop-color="white"/>
  </linearGradient>
  <linearGradient id="paint39_linear" x1="527.17" y1="427.25" x2="554.05" y2="427.25" gradientUnits="userSpaceOnUse">
  <stop stop-color="white" stop-opacity="0"/>
  <stop offset="1" stop-color="white"/>
  </linearGradient>
  <linearGradient id="paint40_linear" x1="554.118" y1="427.25" x2="580.998" y2="427.25" gradientUnits="userSpaceOnUse">
  <stop stop-color="white" stop-opacity="0"/>
  <stop offset="1" stop-color="white"/>
  </linearGradient>
  <linearGradient id="paint41_linear" x1="527.207" y1="404.422" x2="581.002" y2="404.422" gradientUnits="userSpaceOnUse">
  <stop stop-color="white" stop-opacity="0"/>
  <stop offset="1" stop-color="white"/>
  </linearGradient>
  <linearGradient id="paint42_linear" x1="266.274" y1="506.803" x2="293.154" y2="506.803" gradientUnits="userSpaceOnUse">
  <stop stop-color="white" stop-opacity="0"/>
  <stop offset="1" stop-color="white"/>
  </linearGradient>
  <linearGradient id="paint43_linear" x1="293.222" y1="506.803" x2="320.102" y2="506.803" gradientUnits="userSpaceOnUse">
  <stop stop-color="white" stop-opacity="0"/>
  <stop offset="1" stop-color="white"/>
  </linearGradient>
  <linearGradient id="paint44_linear" x1="266.311" y1="483.975" x2="320.106" y2="483.975" gradientUnits="userSpaceOnUse">
  <stop stop-color="white" stop-opacity="0"/>
  <stop offset="1" stop-color="white"/>
  </linearGradient>
  </defs>
  </svg>
